<mxfile host="app.diagrams.net" modified="2023-12-03T22:33:57.420Z" agent="Mozilla/5.0 (Macintosh; Intel Mac OS X 10_15_7) AppleWebKit/537.36 (KHTML, like Gecko) Chrome/119.0.0.0 Safari/537.36" etag="CaCXrvtFd7oMfs-z4ejC" version="22.1.5" type="device">
  <diagram id="WI1TfzOchh7GetG6BBsA" name="Page-1">
    <mxGraphModel dx="627" dy="451" grid="1" gridSize="10" guides="1" tooltips="1" connect="1" arrows="1" fold="1" page="1" pageScale="1" pageWidth="827" pageHeight="1169" math="0" shadow="0">
      <root>
        <mxCell id="0" />
        <mxCell id="1" parent="0" />
        <mxCell id="J-huqx3Fim4sQxfyZbjW-21" style="edgeStyle=orthogonalEdgeStyle;rounded=0;orthogonalLoop=1;jettySize=auto;html=1;" parent="1" source="J-huqx3Fim4sQxfyZbjW-18" edge="1">
          <mxGeometry relative="1" as="geometry">
            <Array as="points">
              <mxPoint x="440" y="280" />
              <mxPoint x="440" y="179" />
            </Array>
            <mxPoint x="630" y="179" as="targetPoint" />
          </mxGeometry>
        </mxCell>
        <mxCell id="J-huqx3Fim4sQxfyZbjW-18" value="" style="rounded=1;whiteSpace=wrap;html=1;dashed=1;dashPattern=8 8;" parent="1" vertex="1">
          <mxGeometry x="40" y="199.89999999999998" width="280" height="160.1" as="geometry" />
        </mxCell>
        <mxCell id="fJGdXQo8MkklOdbaGfAq-39" value="" style="shape=image;html=1;verticalAlign=top;verticalLabelPosition=bottom;labelBackgroundColor=#ffffff;imageAspect=0;aspect=fixed;image=https://cdn1.iconfinder.com/data/icons/bootstrap-vol-3/16/filetype-csv-128.png" parent="1" vertex="1">
          <mxGeometry x="549" y="363.95000000000005" width="28" height="28" as="geometry" />
        </mxCell>
        <mxCell id="fJGdXQo8MkklOdbaGfAq-40" value="" style="shape=image;html=1;verticalAlign=top;verticalLabelPosition=bottom;labelBackgroundColor=#ffffff;imageAspect=0;aspect=fixed;image=https://cdn1.iconfinder.com/data/icons/bootstrap-vol-3/16/filetype-json-128.png" parent="1" vertex="1">
          <mxGeometry x="487.86" y="363.95" width="28" height="28" as="geometry" />
        </mxCell>
        <mxCell id="fJGdXQo8MkklOdbaGfAq-41" value="" style="shape=image;html=1;verticalAlign=top;verticalLabelPosition=bottom;labelBackgroundColor=#ffffff;imageAspect=0;aspect=fixed;image=https://cdn1.iconfinder.com/data/icons/bootstrap-vol-3/16/filetype-html-128.png" parent="1" vertex="1">
          <mxGeometry x="516.86" y="363.95000000000005" width="28" height="28" as="geometry" />
        </mxCell>
        <mxCell id="J-huqx3Fim4sQxfyZbjW-1" value="" style="group" parent="1" vertex="1" connectable="0">
          <mxGeometry x="245" y="28" width="159" height="123.81" as="geometry" />
        </mxCell>
        <mxCell id="J-huqx3Fim4sQxfyZbjW-2" value="" style="rounded=1;arcSize=10;dashed=0;fillColor=none;gradientColor=none;strokeWidth=2;movable=1;resizable=1;rotatable=1;deletable=1;editable=1;connectable=1;container=0;" parent="J-huqx3Fim4sQxfyZbjW-1" vertex="1">
          <mxGeometry x="9" y="10" width="150" height="113.81" as="geometry" />
        </mxCell>
        <mxCell id="J-huqx3Fim4sQxfyZbjW-3" value="" style="outlineConnect=0;dashed=0;verticalLabelPosition=bottom;verticalAlign=top;align=center;html=1;shape=mxgraph.aws3.cloud_2;fillColor=#F58534;gradientColor=none;movable=0;resizable=0;rotatable=0;deletable=0;editable=0;connectable=0;" parent="J-huqx3Fim4sQxfyZbjW-1" vertex="1">
          <mxGeometry width="35" height="35" as="geometry" />
        </mxCell>
        <mxCell id="J-huqx3Fim4sQxfyZbjW-4" value="&lt;b style=&quot;border-color: var(--border-color);&quot;&gt;AWS Security Hub&lt;br style=&quot;border-color: var(--border-color);&quot;&gt;Master&lt;/b&gt;" style="sketch=0;points=[[0,0,0],[0.25,0,0],[0.5,0,0],[0.75,0,0],[1,0,0],[0,1,0],[0.25,1,0],[0.5,1,0],[0.75,1,0],[1,1,0],[0,0.25,0],[0,0.5,0],[0,0.75,0],[1,0.25,0],[1,0.5,0],[1,0.75,0]];outlineConnect=0;fontColor=#232F3E;gradientColor=#F54749;gradientDirection=north;fillColor=#C7131F;strokeColor=#ffffff;dashed=0;verticalLabelPosition=bottom;verticalAlign=top;align=center;html=1;fontSize=12;fontStyle=0;aspect=fixed;shape=mxgraph.aws4.resourceIcon;resIcon=mxgraph.aws4.security_hub;container=0;" parent="J-huqx3Fim4sQxfyZbjW-1" vertex="1">
          <mxGeometry x="69" y="37.14285714285714" width="30.952380952380953" height="30.952380952380953" as="geometry" />
        </mxCell>
        <mxCell id="J-huqx3Fim4sQxfyZbjW-13" style="edgeStyle=orthogonalEdgeStyle;rounded=0;orthogonalLoop=1;jettySize=auto;html=1;" parent="1" source="J-huqx3Fim4sQxfyZbjW-10" target="J-huqx3Fim4sQxfyZbjW-2" edge="1">
          <mxGeometry relative="1" as="geometry" />
        </mxCell>
        <mxCell id="J-huqx3Fim4sQxfyZbjW-10" value="&lt;b&gt;Security Scanner&lt;br&gt;&lt;/b&gt;(Connected with Security Hub)" style="rounded=1;whiteSpace=wrap;html=1;" parent="1" vertex="1">
          <mxGeometry x="10" y="10" width="178" height="50" as="geometry" />
        </mxCell>
        <mxCell id="J-huqx3Fim4sQxfyZbjW-14" style="edgeStyle=orthogonalEdgeStyle;rounded=0;orthogonalLoop=1;jettySize=auto;html=1;entryX=0;entryY=0.5;entryDx=0;entryDy=0;" parent="1" source="J-huqx3Fim4sQxfyZbjW-11" target="J-huqx3Fim4sQxfyZbjW-2" edge="1">
          <mxGeometry relative="1" as="geometry" />
        </mxCell>
        <mxCell id="J-huqx3Fim4sQxfyZbjW-11" value="&lt;b&gt;Security Scanner&lt;/b&gt;" style="rounded=1;whiteSpace=wrap;html=1;" parent="1" vertex="1">
          <mxGeometry x="10" y="70" width="178" height="50" as="geometry" />
        </mxCell>
        <mxCell id="J-huqx3Fim4sQxfyZbjW-15" style="edgeStyle=orthogonalEdgeStyle;rounded=0;orthogonalLoop=1;jettySize=auto;html=1;entryX=0;entryY=0.5;entryDx=0;entryDy=0;" parent="1" source="J-huqx3Fim4sQxfyZbjW-12" target="J-huqx3Fim4sQxfyZbjW-2" edge="1">
          <mxGeometry relative="1" as="geometry" />
        </mxCell>
        <mxCell id="J-huqx3Fim4sQxfyZbjW-12" value="&lt;b&gt;Security Scanner&lt;/b&gt;" style="rounded=1;whiteSpace=wrap;html=1;" parent="1" vertex="1">
          <mxGeometry x="10" y="130" width="178" height="50" as="geometry" />
        </mxCell>
        <mxCell id="J-huqx3Fim4sQxfyZbjW-16" value="Security Scanners&lt;br&gt;Not Integrated with AWS Security Hub generating ASFF fidnings" style="rounded=1;whiteSpace=wrap;html=1;" parent="1" vertex="1">
          <mxGeometry x="81" y="220" width="178" height="99.81" as="geometry" />
        </mxCell>
        <mxCell id="J-huqx3Fim4sQxfyZbjW-17" value="&lt;b&gt;Security Scanner&lt;br&gt;&lt;br&gt;&lt;/b&gt;(Locally generating ASFF outputs)" style="rounded=1;whiteSpace=wrap;html=1;" parent="1" vertex="1">
          <mxGeometry x="100" y="240" width="178" height="99.81" as="geometry" />
        </mxCell>
        <mxCell id="J-huqx3Fim4sQxfyZbjW-20" style="edgeStyle=orthogonalEdgeStyle;rounded=0;orthogonalLoop=1;jettySize=auto;html=1;entryX=0;entryY=0.5;entryDx=0;entryDy=0;exitX=1;exitY=0.5;exitDx=0;exitDy=0;" parent="1" source="J-huqx3Fim4sQxfyZbjW-2" edge="1">
          <mxGeometry relative="1" as="geometry">
            <Array as="points">
              <mxPoint x="404" y="96" />
              <mxPoint x="440" y="96" />
              <mxPoint x="440" y="180" />
            </Array>
            <mxPoint x="410" y="96" as="sourcePoint" />
            <mxPoint x="649" y="179.97" as="targetPoint" />
          </mxGeometry>
        </mxCell>
        <mxCell id="qcqZiNCh5-ERCb72kDhO-7" style="edgeStyle=orthogonalEdgeStyle;rounded=0;orthogonalLoop=1;jettySize=auto;html=1;" edge="1" parent="1" source="J-huqx3Fim4sQxfyZbjW-52" target="qcqZiNCh5-ERCb72kDhO-5">
          <mxGeometry relative="1" as="geometry" />
        </mxCell>
        <mxCell id="J-huqx3Fim4sQxfyZbjW-52" value="Read &lt;br&gt;Security Findings" style="text;html=1;strokeColor=none;fillColor=none;align=center;verticalAlign=middle;whiteSpace=wrap;rounded=0;fontStyle=1;fontSize=15;" parent="1" vertex="1">
          <mxGeometry x="459" y="188" width="156" height="30" as="geometry" />
        </mxCell>
        <mxCell id="qcqZiNCh5-ERCb72kDhO-8" style="edgeStyle=orthogonalEdgeStyle;rounded=0;orthogonalLoop=1;jettySize=auto;html=1;entryX=0.5;entryY=0;entryDx=0;entryDy=0;" edge="1" parent="1" source="J-huqx3Fim4sQxfyZbjW-56" target="qcqZiNCh5-ERCb72kDhO-5">
          <mxGeometry relative="1" as="geometry" />
        </mxCell>
        <mxCell id="J-huqx3Fim4sQxfyZbjW-56" value="Fetch &lt;br&gt;Resources Context" style="text;html=1;strokeColor=none;fillColor=none;align=center;verticalAlign=middle;whiteSpace=wrap;rounded=0;fontStyle=1;strokeWidth=3;fontSize=15;" parent="1" vertex="1">
          <mxGeometry x="762" y="183" width="156" height="31" as="geometry" />
        </mxCell>
        <mxCell id="J-huqx3Fim4sQxfyZbjW-58" value="1" style="text;html=1;strokeColor=none;fillColor=none;align=center;verticalAlign=middle;whiteSpace=wrap;rounded=0;fontSize=18;fontStyle=1" parent="1" vertex="1">
          <mxGeometry x="504" y="152" width="60" height="30" as="geometry" />
        </mxCell>
        <mxCell id="J-huqx3Fim4sQxfyZbjW-59" value="2" style="text;html=1;strokeColor=none;fillColor=none;align=center;verticalAlign=middle;whiteSpace=wrap;rounded=0;fontSize=18;fontStyle=1" parent="1" vertex="1">
          <mxGeometry x="807" y="151" width="60" height="30" as="geometry" />
        </mxCell>
        <mxCell id="J-huqx3Fim4sQxfyZbjW-67" value="&lt;b style=&quot;font-size: 13px;&quot;&gt;Enrich Findings&lt;br&gt;&lt;br&gt;&lt;/b&gt;Enrich back &lt;br&gt;AWS Security Hub findings with enriched output" style="rounded=1;whiteSpace=wrap;html=1;" parent="1" vertex="1">
          <mxGeometry x="750" y="420" width="180" height="110" as="geometry" />
        </mxCell>
        <mxCell id="J-huqx3Fim4sQxfyZbjW-68" value="&lt;b&gt;&lt;font style=&quot;font-size: 13px;&quot;&gt;Report&lt;br&gt;&lt;br&gt;&lt;/font&gt;&lt;/b&gt;&lt;font style=&quot;font-size: 13px;&quot;&gt;Create custom reports for your teams, with the data and filter you need.&lt;/font&gt;" style="rounded=1;whiteSpace=wrap;html=1;" parent="1" vertex="1">
          <mxGeometry x="456.75" y="640" width="178" height="109" as="geometry" />
        </mxCell>
        <mxCell id="J-huqx3Fim4sQxfyZbjW-69" value="&lt;font style=&quot;font-size: 13px;&quot;&gt;&lt;b&gt;Update Findings&lt;br&gt;&lt;br&gt;&lt;/b&gt;&lt;/font&gt;SUPPRESS, NOTIFY, or&amp;nbsp; RESOLVE &lt;br&gt;AWS Security Hub findings" style="rounded=1;whiteSpace=wrap;html=1;" parent="1" vertex="1">
          <mxGeometry x="751" y="550" width="178" height="110" as="geometry" />
        </mxCell>
        <mxCell id="J-huqx3Fim4sQxfyZbjW-70" value="&lt;b&gt;&lt;font style=&quot;font-size: 13px;&quot;&gt;Integrate&lt;/font&gt;&lt;br&gt;&lt;br&gt;&lt;/b&gt;&lt;font style=&quot;font-size: 13px;&quot;&gt;Integrate MetaHub with any tooling you use to consume findings with Contextual information&lt;/font&gt;" style="rounded=1;whiteSpace=wrap;html=1;" parent="1" vertex="1">
          <mxGeometry x="459" y="406" width="178" height="110" as="geometry" />
        </mxCell>
        <mxCell id="J-huqx3Fim4sQxfyZbjW-71" value="&lt;font style=&quot;font-size: 13px;&quot;&gt;&lt;b&gt;Alert&lt;br&gt;&lt;br&gt;&lt;/b&gt;&lt;/font&gt;Using the Impact Scoring Metric from MetaHub you can automate alerts for high severity context findings.&amp;nbsp;" style="rounded=1;whiteSpace=wrap;html=1;" parent="1" vertex="1">
          <mxGeometry x="459" y="522" width="178" height="110" as="geometry" />
        </mxCell>
        <mxCell id="J-huqx3Fim4sQxfyZbjW-76" value="3" style="text;html=1;strokeColor=none;fillColor=none;align=center;verticalAlign=middle;whiteSpace=wrap;rounded=0;fontSize=18;fontStyle=1" parent="1" vertex="1">
          <mxGeometry x="647" y="235.99999999999994" width="37" height="30" as="geometry" />
        </mxCell>
        <mxCell id="J-huqx3Fim4sQxfyZbjW-82" value="Outputs" style="text;html=1;strokeColor=none;fillColor=none;align=center;verticalAlign=middle;whiteSpace=wrap;rounded=0;fontStyle=1;strokeWidth=3;fontSize=14;" parent="1" vertex="1">
          <mxGeometry x="450" y="319.81" width="191.5" height="50" as="geometry" />
        </mxCell>
        <mxCell id="J-huqx3Fim4sQxfyZbjW-87" value="Calculate Impact" style="text;html=1;strokeColor=none;fillColor=none;align=center;verticalAlign=middle;whiteSpace=wrap;rounded=0;fontStyle=1;strokeWidth=3;fontSize=15;" parent="1" vertex="1">
          <mxGeometry x="680" y="236" width="155" height="30" as="geometry" />
        </mxCell>
        <mxCell id="40wGhhmAp5IW4ZrIopW7-2" value="Input Files (ASFF)" style="text;html=1;strokeColor=none;fillColor=none;align=center;verticalAlign=middle;whiteSpace=wrap;rounded=0;fontStyle=1;fontSize=14;" parent="1" vertex="1">
          <mxGeometry x="320" y="289.81" width="156" height="30" as="geometry" />
        </mxCell>
        <mxCell id="40wGhhmAp5IW4ZrIopW7-3" value="AWS API" style="text;html=1;strokeColor=none;fillColor=none;align=center;verticalAlign=middle;whiteSpace=wrap;rounded=0;fontStyle=1;fontSize=14;" parent="1" vertex="1">
          <mxGeometry x="368" y="60" width="156" height="30" as="geometry" />
        </mxCell>
        <mxCell id="WshjYJy2SDbHsKW-Wd6B-2" value="" style="rounded=1;whiteSpace=wrap;html=1;container=0;" parent="1" vertex="1">
          <mxGeometry x="932" y="10" width="310" height="370" as="geometry" />
        </mxCell>
        <mxCell id="WshjYJy2SDbHsKW-Wd6B-3" value="Affected Resources" style="text;html=1;strokeColor=none;fillColor=none;align=center;verticalAlign=middle;whiteSpace=wrap;rounded=0;fontStyle=1;container=0;" parent="1" vertex="1">
          <mxGeometry x="988.5588764044942" y="370.0014285714286" width="189.8876404494382" height="40.714285714285715" as="geometry" />
        </mxCell>
        <mxCell id="WshjYJy2SDbHsKW-Wd6B-4" style="edgeStyle=orthogonalEdgeStyle;rounded=0;orthogonalLoop=1;jettySize=auto;html=1;exitX=0.5;exitY=1;exitDx=0;exitDy=0;exitPerimeter=0;" parent="1" edge="1">
          <mxGeometry relative="1" as="geometry">
            <mxPoint x="1219.1613891726251" y="177.82928571428582" as="sourcePoint" />
            <mxPoint x="1219.1613891726251" y="177.82928571428582" as="targetPoint" />
          </mxGeometry>
        </mxCell>
        <mxCell id="WshjYJy2SDbHsKW-Wd6B-5" value="" style="group" parent="1" vertex="1" connectable="0">
          <mxGeometry x="962.0041573033708" y="20.00071428571436" width="248.31584269662926" height="114.09928571428564" as="geometry" />
        </mxCell>
        <mxCell id="WshjYJy2SDbHsKW-Wd6B-6" style="edgeStyle=orthogonalEdgeStyle;rounded=0;orthogonalLoop=1;jettySize=auto;html=1;exitX=0.5;exitY=1;exitDx=0;exitDy=0;exitPerimeter=0;" parent="WshjYJy2SDbHsKW-Wd6B-5" edge="1">
          <mxGeometry relative="1" as="geometry">
            <mxPoint x="199.84678243105213" y="26.21428571428572" as="sourcePoint" />
            <mxPoint x="199.84678243105213" y="26.21428571428572" as="targetPoint" />
          </mxGeometry>
        </mxCell>
        <mxCell id="WshjYJy2SDbHsKW-Wd6B-7" value="" style="rounded=1;arcSize=10;dashed=1;fillColor=none;gradientColor=none;strokeWidth=2;movable=1;resizable=1;rotatable=1;deletable=1;editable=1;connectable=1;container=0;strokeColor=#FFB570;" parent="WshjYJy2SDbHsKW-Wd6B-5" vertex="1">
          <mxGeometry x="14.05584269662927" y="15.359285714285637" width="234.26" height="98.74" as="geometry" />
        </mxCell>
        <mxCell id="WshjYJy2SDbHsKW-Wd6B-8" value="" style="outlineConnect=0;dashed=0;verticalLabelPosition=bottom;verticalAlign=top;align=center;html=1;shape=mxgraph.aws3.cloud_2;fillColor=#F58534;gradientColor=none;movable=0;resizable=0;rotatable=0;deletable=0;editable=0;connectable=0;" parent="WshjYJy2SDbHsKW-Wd6B-5" vertex="1">
          <mxGeometry width="35" height="35" as="geometry" />
        </mxCell>
        <mxCell id="WshjYJy2SDbHsKW-Wd6B-9" value="" style="sketch=0;outlineConnect=0;fontColor=#232F3E;gradientColor=none;strokeColor=#ffffff;fillColor=#232F3E;dashed=0;verticalLabelPosition=middle;verticalAlign=bottom;align=center;html=1;whiteSpace=wrap;fontSize=10;fontStyle=1;spacing=3;shape=mxgraph.aws4.productIcon;prIcon=mxgraph.aws4.ec2;container=0;" parent="WshjYJy2SDbHsKW-Wd6B-5" vertex="1">
          <mxGeometry x="116.86584269662922" y="24.09928571428564" width="28.63" height="30" as="geometry" />
        </mxCell>
        <mxCell id="WshjYJy2SDbHsKW-Wd6B-10" value="Amazon S3" style="sketch=0;outlineConnect=0;fontColor=#232F3E;gradientColor=none;strokeColor=#ffffff;fillColor=#232F3E;dashed=0;verticalLabelPosition=middle;verticalAlign=bottom;align=center;html=1;whiteSpace=wrap;fontSize=10;fontStyle=1;spacing=3;shape=mxgraph.aws4.productIcon;prIcon=mxgraph.aws4.s3;container=0;" parent="WshjYJy2SDbHsKW-Wd6B-5" vertex="1">
          <mxGeometry x="158.32584269662925" y="34.09928571428564" width="36.85" height="40.71" as="geometry" />
        </mxCell>
        <mxCell id="WshjYJy2SDbHsKW-Wd6B-11" style="edgeStyle=orthogonalEdgeStyle;rounded=0;orthogonalLoop=1;jettySize=auto;html=1;exitX=0.5;exitY=1;exitDx=0;exitDy=0;exitPerimeter=0;" parent="WshjYJy2SDbHsKW-Wd6B-5" edge="1">
          <mxGeometry relative="1" as="geometry">
            <mxPoint x="233.44228804902968" y="95.68642857142866" as="sourcePoint" />
            <mxPoint x="233.44228804902968" y="95.68642857142866" as="targetPoint" />
          </mxGeometry>
        </mxCell>
        <mxCell id="WshjYJy2SDbHsKW-Wd6B-12" value="" style="sketch=0;outlineConnect=0;fontColor=#232F3E;gradientColor=none;strokeColor=#ffffff;fillColor=#232F3E;dashed=0;verticalLabelPosition=middle;verticalAlign=bottom;align=center;html=1;whiteSpace=wrap;fontSize=10;fontStyle=1;spacing=3;shape=mxgraph.aws4.productIcon;prIcon=mxgraph.aws4.elasticsearch_service;container=0;" parent="WshjYJy2SDbHsKW-Wd6B-5" vertex="1">
          <mxGeometry x="68.59584269662923" y="20.87928571428564" width="41.02" height="36.45" as="geometry" />
        </mxCell>
        <mxCell id="WshjYJy2SDbHsKW-Wd6B-13" value="" style="sketch=0;outlineConnect=0;fontColor=#232F3E;gradientColor=none;strokeColor=#ffffff;fillColor=#232F3E;dashed=0;verticalLabelPosition=middle;verticalAlign=bottom;align=center;html=1;whiteSpace=wrap;fontSize=10;fontStyle=1;spacing=3;shape=mxgraph.aws4.productIcon;prIcon=mxgraph.aws4.elasticsearch_service;container=0;" parent="WshjYJy2SDbHsKW-Wd6B-5" vertex="1">
          <mxGeometry x="116.86584269662922" y="67.64928571428564" width="41.02" height="36.45" as="geometry" />
        </mxCell>
        <mxCell id="WshjYJy2SDbHsKW-Wd6B-14" value="Amazon S3" style="sketch=0;outlineConnect=0;fontColor=#232F3E;gradientColor=none;strokeColor=#ffffff;fillColor=#232F3E;dashed=0;verticalLabelPosition=middle;verticalAlign=bottom;align=center;html=1;whiteSpace=wrap;fontSize=10;fontStyle=1;spacing=3;shape=mxgraph.aws4.productIcon;prIcon=mxgraph.aws4.s3;container=0;" parent="WshjYJy2SDbHsKW-Wd6B-5" vertex="1">
          <mxGeometry x="60.32584269662925" y="67.64928571428564" width="36.85" height="40.71" as="geometry" />
        </mxCell>
        <mxCell id="WshjYJy2SDbHsKW-Wd6B-15" value="" style="sketch=0;outlineConnect=0;fontColor=#232F3E;gradientColor=none;strokeColor=#ffffff;fillColor=#232F3E;dashed=0;verticalLabelPosition=middle;verticalAlign=bottom;align=center;html=1;whiteSpace=wrap;fontSize=10;fontStyle=1;spacing=3;shape=mxgraph.aws4.productIcon;prIcon=mxgraph.aws4.ec2;container=0;" parent="WshjYJy2SDbHsKW-Wd6B-5" vertex="1">
          <mxGeometry x="190.32584269662925" y="78.35928571428563" width="28.63" height="30" as="geometry" />
        </mxCell>
        <mxCell id="WshjYJy2SDbHsKW-Wd6B-16" value="Amazon S3" style="sketch=0;outlineConnect=0;fontColor=#232F3E;gradientColor=none;strokeColor=#ffffff;fillColor=#232F3E;dashed=0;verticalLabelPosition=middle;verticalAlign=bottom;align=center;html=1;whiteSpace=wrap;fontSize=10;fontStyle=1;spacing=3;shape=mxgraph.aws4.productIcon;prIcon=mxgraph.aws4.s3;container=0;" parent="WshjYJy2SDbHsKW-Wd6B-5" vertex="1">
          <mxGeometry x="200.32584269662925" y="23.389285714285638" width="36.85" height="40.71" as="geometry" />
        </mxCell>
        <mxCell id="WshjYJy2SDbHsKW-Wd6B-17" value="" style="group" parent="1" vertex="1" connectable="0">
          <mxGeometry x="962.0041573033707" y="139.00071428571437" width="248.31584269662926" height="114.09928571428564" as="geometry" />
        </mxCell>
        <mxCell id="WshjYJy2SDbHsKW-Wd6B-18" style="edgeStyle=orthogonalEdgeStyle;rounded=0;orthogonalLoop=1;jettySize=auto;html=1;exitX=0.5;exitY=1;exitDx=0;exitDy=0;exitPerimeter=0;" parent="WshjYJy2SDbHsKW-Wd6B-17" edge="1">
          <mxGeometry relative="1" as="geometry">
            <mxPoint x="199.84678243105213" y="26.21428571428572" as="sourcePoint" />
            <mxPoint x="199.84678243105213" y="26.21428571428572" as="targetPoint" />
          </mxGeometry>
        </mxCell>
        <mxCell id="WshjYJy2SDbHsKW-Wd6B-19" value="" style="rounded=1;arcSize=10;dashed=1;fillColor=none;gradientColor=none;strokeWidth=2;movable=1;resizable=1;rotatable=1;deletable=1;editable=1;connectable=1;container=0;strokeColor=#FFB570;" parent="WshjYJy2SDbHsKW-Wd6B-17" vertex="1">
          <mxGeometry x="14.05584269662927" y="15.359285714285637" width="234.26" height="98.74" as="geometry" />
        </mxCell>
        <mxCell id="WshjYJy2SDbHsKW-Wd6B-20" value="" style="outlineConnect=0;dashed=0;verticalLabelPosition=bottom;verticalAlign=top;align=center;html=1;shape=mxgraph.aws3.cloud_2;fillColor=#F58534;gradientColor=none;movable=0;resizable=0;rotatable=0;deletable=0;editable=0;connectable=0;" parent="WshjYJy2SDbHsKW-Wd6B-17" vertex="1">
          <mxGeometry width="35" height="35" as="geometry" />
        </mxCell>
        <mxCell id="WshjYJy2SDbHsKW-Wd6B-21" value="" style="sketch=0;outlineConnect=0;fontColor=#232F3E;gradientColor=none;strokeColor=#ffffff;fillColor=#232F3E;dashed=0;verticalLabelPosition=middle;verticalAlign=bottom;align=center;html=1;whiteSpace=wrap;fontSize=10;fontStyle=1;spacing=3;shape=mxgraph.aws4.productIcon;prIcon=mxgraph.aws4.ec2;container=0;" parent="WshjYJy2SDbHsKW-Wd6B-17" vertex="1">
          <mxGeometry x="116.86584269662922" y="24.09928571428564" width="28.63" height="30" as="geometry" />
        </mxCell>
        <mxCell id="WshjYJy2SDbHsKW-Wd6B-22" value="Amazon S3" style="sketch=0;outlineConnect=0;fontColor=#232F3E;gradientColor=none;strokeColor=#ffffff;fillColor=#232F3E;dashed=0;verticalLabelPosition=middle;verticalAlign=bottom;align=center;html=1;whiteSpace=wrap;fontSize=10;fontStyle=1;spacing=3;shape=mxgraph.aws4.productIcon;prIcon=mxgraph.aws4.s3;container=0;" parent="WshjYJy2SDbHsKW-Wd6B-17" vertex="1">
          <mxGeometry x="158.32584269662925" y="34.09928571428564" width="36.85" height="40.71" as="geometry" />
        </mxCell>
        <mxCell id="WshjYJy2SDbHsKW-Wd6B-23" style="edgeStyle=orthogonalEdgeStyle;rounded=0;orthogonalLoop=1;jettySize=auto;html=1;exitX=0.5;exitY=1;exitDx=0;exitDy=0;exitPerimeter=0;" parent="WshjYJy2SDbHsKW-Wd6B-17" edge="1">
          <mxGeometry relative="1" as="geometry">
            <mxPoint x="233.44228804902968" y="95.68642857142866" as="sourcePoint" />
            <mxPoint x="233.44228804902968" y="95.68642857142866" as="targetPoint" />
          </mxGeometry>
        </mxCell>
        <mxCell id="WshjYJy2SDbHsKW-Wd6B-24" value="" style="sketch=0;outlineConnect=0;fontColor=#232F3E;gradientColor=none;strokeColor=#ffffff;fillColor=#232F3E;dashed=0;verticalLabelPosition=middle;verticalAlign=bottom;align=center;html=1;whiteSpace=wrap;fontSize=10;fontStyle=1;spacing=3;shape=mxgraph.aws4.productIcon;prIcon=mxgraph.aws4.elasticsearch_service;container=0;" parent="WshjYJy2SDbHsKW-Wd6B-17" vertex="1">
          <mxGeometry x="68.59584269662923" y="20.87928571428564" width="41.02" height="36.45" as="geometry" />
        </mxCell>
        <mxCell id="WshjYJy2SDbHsKW-Wd6B-25" value="" style="sketch=0;outlineConnect=0;fontColor=#232F3E;gradientColor=none;strokeColor=#ffffff;fillColor=#232F3E;dashed=0;verticalLabelPosition=middle;verticalAlign=bottom;align=center;html=1;whiteSpace=wrap;fontSize=10;fontStyle=1;spacing=3;shape=mxgraph.aws4.productIcon;prIcon=mxgraph.aws4.elasticsearch_service;container=0;" parent="WshjYJy2SDbHsKW-Wd6B-17" vertex="1">
          <mxGeometry x="116.86584269662922" y="67.64928571428564" width="41.02" height="36.45" as="geometry" />
        </mxCell>
        <mxCell id="WshjYJy2SDbHsKW-Wd6B-26" value="Amazon S3" style="sketch=0;outlineConnect=0;fontColor=#232F3E;gradientColor=none;strokeColor=#ffffff;fillColor=#232F3E;dashed=0;verticalLabelPosition=middle;verticalAlign=bottom;align=center;html=1;whiteSpace=wrap;fontSize=10;fontStyle=1;spacing=3;shape=mxgraph.aws4.productIcon;prIcon=mxgraph.aws4.s3;container=0;" parent="WshjYJy2SDbHsKW-Wd6B-17" vertex="1">
          <mxGeometry x="60.32584269662925" y="67.64928571428564" width="36.85" height="40.71" as="geometry" />
        </mxCell>
        <mxCell id="WshjYJy2SDbHsKW-Wd6B-27" value="" style="sketch=0;outlineConnect=0;fontColor=#232F3E;gradientColor=none;strokeColor=#ffffff;fillColor=#232F3E;dashed=0;verticalLabelPosition=middle;verticalAlign=bottom;align=center;html=1;whiteSpace=wrap;fontSize=10;fontStyle=1;spacing=3;shape=mxgraph.aws4.productIcon;prIcon=mxgraph.aws4.ec2;container=0;" parent="WshjYJy2SDbHsKW-Wd6B-17" vertex="1">
          <mxGeometry x="190.32584269662925" y="78.35928571428563" width="28.63" height="30" as="geometry" />
        </mxCell>
        <mxCell id="WshjYJy2SDbHsKW-Wd6B-28" value="Amazon S3" style="sketch=0;outlineConnect=0;fontColor=#232F3E;gradientColor=none;strokeColor=#ffffff;fillColor=#232F3E;dashed=0;verticalLabelPosition=middle;verticalAlign=bottom;align=center;html=1;whiteSpace=wrap;fontSize=10;fontStyle=1;spacing=3;shape=mxgraph.aws4.productIcon;prIcon=mxgraph.aws4.s3;container=0;" parent="WshjYJy2SDbHsKW-Wd6B-17" vertex="1">
          <mxGeometry x="200.32584269662925" y="23.389285714285638" width="36.85" height="40.71" as="geometry" />
        </mxCell>
        <mxCell id="WshjYJy2SDbHsKW-Wd6B-29" value="" style="group" parent="1" vertex="1" connectable="0">
          <mxGeometry x="962.0041573033707" y="247.76071428571436" width="248.31584269662926" height="114.09928571428564" as="geometry" />
        </mxCell>
        <mxCell id="WshjYJy2SDbHsKW-Wd6B-30" style="edgeStyle=orthogonalEdgeStyle;rounded=0;orthogonalLoop=1;jettySize=auto;html=1;exitX=0.5;exitY=1;exitDx=0;exitDy=0;exitPerimeter=0;" parent="WshjYJy2SDbHsKW-Wd6B-29" edge="1">
          <mxGeometry relative="1" as="geometry">
            <mxPoint x="199.84678243105213" y="26.21428571428572" as="sourcePoint" />
            <mxPoint x="199.84678243105213" y="26.21428571428572" as="targetPoint" />
          </mxGeometry>
        </mxCell>
        <mxCell id="WshjYJy2SDbHsKW-Wd6B-31" value="" style="rounded=1;arcSize=10;dashed=1;fillColor=none;gradientColor=none;strokeWidth=2;movable=1;resizable=1;rotatable=1;deletable=1;editable=1;connectable=1;container=0;strokeColor=#FFB570;" parent="WshjYJy2SDbHsKW-Wd6B-29" vertex="1">
          <mxGeometry x="14.05584269662927" y="15.359285714285637" width="234.26" height="98.74" as="geometry" />
        </mxCell>
        <mxCell id="WshjYJy2SDbHsKW-Wd6B-32" value="" style="outlineConnect=0;dashed=0;verticalLabelPosition=bottom;verticalAlign=top;align=center;html=1;shape=mxgraph.aws3.cloud_2;fillColor=#F58534;gradientColor=none;movable=0;resizable=0;rotatable=0;deletable=0;editable=0;connectable=0;" parent="WshjYJy2SDbHsKW-Wd6B-29" vertex="1">
          <mxGeometry width="35" height="35" as="geometry" />
        </mxCell>
        <mxCell id="WshjYJy2SDbHsKW-Wd6B-33" value="" style="sketch=0;outlineConnect=0;fontColor=#232F3E;gradientColor=none;strokeColor=#ffffff;fillColor=#232F3E;dashed=0;verticalLabelPosition=middle;verticalAlign=bottom;align=center;html=1;whiteSpace=wrap;fontSize=10;fontStyle=1;spacing=3;shape=mxgraph.aws4.productIcon;prIcon=mxgraph.aws4.ec2;container=0;" parent="WshjYJy2SDbHsKW-Wd6B-29" vertex="1">
          <mxGeometry x="116.86584269662922" y="24.09928571428564" width="28.63" height="30" as="geometry" />
        </mxCell>
        <mxCell id="WshjYJy2SDbHsKW-Wd6B-34" value="Amazon S3" style="sketch=0;outlineConnect=0;fontColor=#232F3E;gradientColor=none;strokeColor=#ffffff;fillColor=#232F3E;dashed=0;verticalLabelPosition=middle;verticalAlign=bottom;align=center;html=1;whiteSpace=wrap;fontSize=10;fontStyle=1;spacing=3;shape=mxgraph.aws4.productIcon;prIcon=mxgraph.aws4.s3;container=0;" parent="WshjYJy2SDbHsKW-Wd6B-29" vertex="1">
          <mxGeometry x="158.32584269662925" y="34.09928571428564" width="36.85" height="40.71" as="geometry" />
        </mxCell>
        <mxCell id="WshjYJy2SDbHsKW-Wd6B-35" style="edgeStyle=orthogonalEdgeStyle;rounded=0;orthogonalLoop=1;jettySize=auto;html=1;exitX=0.5;exitY=1;exitDx=0;exitDy=0;exitPerimeter=0;" parent="WshjYJy2SDbHsKW-Wd6B-29" edge="1">
          <mxGeometry relative="1" as="geometry">
            <mxPoint x="233.44228804902968" y="95.68642857142866" as="sourcePoint" />
            <mxPoint x="233.44228804902968" y="95.68642857142866" as="targetPoint" />
          </mxGeometry>
        </mxCell>
        <mxCell id="WshjYJy2SDbHsKW-Wd6B-36" value="" style="sketch=0;outlineConnect=0;fontColor=#232F3E;gradientColor=none;strokeColor=#ffffff;fillColor=#232F3E;dashed=0;verticalLabelPosition=middle;verticalAlign=bottom;align=center;html=1;whiteSpace=wrap;fontSize=10;fontStyle=1;spacing=3;shape=mxgraph.aws4.productIcon;prIcon=mxgraph.aws4.elasticsearch_service;container=0;" parent="WshjYJy2SDbHsKW-Wd6B-29" vertex="1">
          <mxGeometry x="68.59584269662923" y="20.87928571428564" width="41.02" height="36.45" as="geometry" />
        </mxCell>
        <mxCell id="WshjYJy2SDbHsKW-Wd6B-37" value="" style="sketch=0;outlineConnect=0;fontColor=#232F3E;gradientColor=none;strokeColor=#ffffff;fillColor=#232F3E;dashed=0;verticalLabelPosition=middle;verticalAlign=bottom;align=center;html=1;whiteSpace=wrap;fontSize=10;fontStyle=1;spacing=3;shape=mxgraph.aws4.productIcon;prIcon=mxgraph.aws4.elasticsearch_service;container=0;" parent="WshjYJy2SDbHsKW-Wd6B-29" vertex="1">
          <mxGeometry x="116.86584269662922" y="67.64928571428564" width="41.02" height="36.45" as="geometry" />
        </mxCell>
        <mxCell id="WshjYJy2SDbHsKW-Wd6B-38" value="Amazon S3" style="sketch=0;outlineConnect=0;fontColor=#232F3E;gradientColor=none;strokeColor=#ffffff;fillColor=#232F3E;dashed=0;verticalLabelPosition=middle;verticalAlign=bottom;align=center;html=1;whiteSpace=wrap;fontSize=10;fontStyle=1;spacing=3;shape=mxgraph.aws4.productIcon;prIcon=mxgraph.aws4.s3;container=0;" parent="WshjYJy2SDbHsKW-Wd6B-29" vertex="1">
          <mxGeometry x="60.32584269662925" y="67.64928571428564" width="36.85" height="40.71" as="geometry" />
        </mxCell>
        <mxCell id="WshjYJy2SDbHsKW-Wd6B-39" value="" style="sketch=0;outlineConnect=0;fontColor=#232F3E;gradientColor=none;strokeColor=#ffffff;fillColor=#232F3E;dashed=0;verticalLabelPosition=middle;verticalAlign=bottom;align=center;html=1;whiteSpace=wrap;fontSize=10;fontStyle=1;spacing=3;shape=mxgraph.aws4.productIcon;prIcon=mxgraph.aws4.ec2;container=0;" parent="WshjYJy2SDbHsKW-Wd6B-29" vertex="1">
          <mxGeometry x="190.32584269662925" y="78.35928571428563" width="28.63" height="30" as="geometry" />
        </mxCell>
        <mxCell id="WshjYJy2SDbHsKW-Wd6B-40" value="Amazon S3" style="sketch=0;outlineConnect=0;fontColor=#232F3E;gradientColor=none;strokeColor=#ffffff;fillColor=#232F3E;dashed=0;verticalLabelPosition=middle;verticalAlign=bottom;align=center;html=1;whiteSpace=wrap;fontSize=10;fontStyle=1;spacing=3;shape=mxgraph.aws4.productIcon;prIcon=mxgraph.aws4.s3;container=0;" parent="WshjYJy2SDbHsKW-Wd6B-29" vertex="1">
          <mxGeometry x="200.32584269662925" y="23.389285714285638" width="36.85" height="40.71" as="geometry" />
        </mxCell>
        <mxCell id="qcqZiNCh5-ERCb72kDhO-1" value="" style="shape=image;verticalLabelPosition=bottom;labelBackgroundColor=default;verticalAlign=top;aspect=fixed;imageAspect=0;image=data:image/png,iVBORw0KGgoAAAANSUhEUgAABLAAAASwCAYAAADrIbPPAAAAAXNSR0IArs4c6QAAIABJREFUeF7s3Qm8ZPOZN/C/pRuxNIMYxNLDWGLf14QQBIMgEiJiTSJpBmGm0Z1EJMQeJIMMsQ8SSzCToO2EoO1Niy2IkExia0unLc37ecrbxtJL3XtPVT2n6ns+n3zed5Kqc57zfZ6+99avzvmf6Uop7xQbAQIECBAgQIAAAQIECBAgQIAAgaQC0wmwknZGWQQIECBAgAABAgQIECBAgAABAg0BAZZBIECAAAECBAgQIECAAAECBAgQSC0gwErdHsURIECAAAECBAgQIECAAAECBAgIsMwAAQIECBAgQIAAAQIECBAgQIBAagEBVur2KI4AAQIECBAgQIAAAQIECBAgQECAZQYIECBAgAABAgQIECBAgAABAgRSCwiwUrdHcQQIECBAgAABAgQIECBAgAABAgIsM0CAAAECBAgQIECAAAECBAgQIJBaQICVuj2KI0CAAAECBAgQIECAAAECBAgQEGCZAQIECBAgQIAAAQIECBAgQIAAgdQCAqzU7VEcAQIECBAgQIAAAQIECBAgQICAAMsMECBAgAABAgQIECBAgAABAgQIpBYQYKVuj+IIECBAgAABAgQIECBAgAABAgQEWGaAAAECBAgQIECAAAECBAgQIEAgtYAAK3V7FEeAAAECBAgQIECAAAECBAgQICDAMgMECBAgQIAAAQIECBAgQIAAAQKpBQRYqdujOAIECBAgQIAAAQIECBAgQIAAAQGWGSBAgAABAgQIECBAgAABAgQIEEgtIMBK3R7FESBAgAABAgQIECBAgAABAgQICLDMAAECBAgQIECAAAECBAgQIECAQGoBAVbq9iiOAAECBAgQIECAAAECBAgQIEBAgGUGCBAgQIAAAQIECBAgQIAAAQIEUgsIsFK3R3EECBAgQIAAAQIECBAgQIAAAQICLDNAgAABAgQIECBAgAABAgQIECCQWkCAlbo9iiNAgAABAgQIECBAgAABAgQIEBBgmQECBAgQIECAAAECBAgQIECAAIHUAgKs1O1RHAECBAgQIECAAAECBAgQIECAgADLDBAgQIAAAQIECBAgQIAAAQIECKQWEGClbo/iCBAgQIAAAQIECBAgQIAAAQIEBFhmgAABAgQIECBAgAABAgQIECBAILWAACt1exRHgAABAgQIECBAgAABAgQIECAgwDIDBAgQIECAAAECBAgQIECAAAECqQUEWKnbozgCBAgQIECAAAECBAgQIECAAAEBlhkgQIAAAQIECBAgQIAAAQIECBBILSDASt0exREgQIAAAQIECBAgQIAAAQIECAiwzAABAgQIECBAgAABAgQIECBAgEBqAQFW6vYojgABAgQIECBAgAABAgQIECBAQIBlBggQIECAAAECBAgQIECAAAECBFILCLBSt0dxBAgQIECAAAECBAgQIECAAAECAiwzQIAAAQIECBAgQIAAAQIECBAgkFpAgJW6PYojQIAAAQIECBAgQIAAAQIECBAQYJkBAgQIECBAgAABAgQIECBAgACB1AICrNTtURwBAgQIECBAgAABAgQIECBAgIAAywwQIECAAAECBAgQIECAAAECBAikFhBgpW6P4ggQIECAAAECBAgQIECAAAECBARYZoAAAQIECBAgQIAAAQIECBAgQCC1gAArdXsUR4AAAQIECBAgQIAAAQIECBAgIMAyAwQIECBAgAABAgQIECBAgAABAqkFBFip26M4AgQIECBAgAABAgQIECBAgAABAZYZIECAAAECBAgQIECAAAECBAgQSC0gwErdHsURIECAAAECBAgQIECAAAECBAgIsMwAAQIECBAgQIAAAQIECBAgQIBAagEBVur2KI4AAQIECBAgQIAAAQIECBAgQECAZQYIECBAgAABAgQIECBAgAABAgRSCwiwUrdHcQQIECBAgAABAgQIECBAgAABAgIsM0CAAAECBAgQIECAAAECBAgQIJBaQICVuj2KI0CAAAECBAgQIECAAAECBAgQEGCZAQIECBAgQIAAAQIECBAgQIAAgdQCAqzU7VEcAQIECBAgQIAAAQIECBAgQICAAMsMECBAgAABAgQIECBAgAABAgQIpBYQYKVuj+IIECBAgAABAgQIECBAgAABAgQEWGaAAAECBAgQIECAAAECBAgQIEAgtYAAK3V7FEeAAAECBAgQIECAAAECBAgQICDAMgMECBAgQIAAAQIECBAgQIAAAQKpBQRYqdujOAIECBAgQIAAAQIECBAgQIAAAQGWGSBAgAABAgQIECBAgAABAgQIEEgtIMBK3R7FESBAgAABAgQIECBAgAABAgQICLDMAAECBAgQIECAAAECBAgQIECAQGoBAVbq9iiOAAECBAgQIECAAAECBAgQIEBAgGUGCBAgQIAAAQIECBAgQIAAAQIEUgsIsFK3R3EECBAgQIAAAQIECBAgQIAAAQICLDNAgAABAgQIECBAgAABAgQIECCQWkCAlbo9iiNAgAABAgQIECBAgAABAgQIEBBgmQECBAgQIECAAAECBAgQIECAAIHUAgKs1O1RHAECBAgQIECAAAECBAgQIECAgADLDBAgQIAAAQIECBAgQIAAAQIECKQWEGClbo/iCBAgQIAAAQIECBAgQIAAAQIEBFhmgAABAgQIECBAgAABAgQIECBAILWAACt1exRHgAABAgQIECBAgAABAgQIECAgwDIDBAgQIECAAAECBAgQIECAAAECqQUEWKnbozgCBAgQIECAAAECBAgQIECAAAEBlhkgQIAAAQIECBAgQIAAAQIECBBILSDASt0exREgQIAAAQIECBAgQIAAAQIECAiwzAABAgQIECBAgAABAgQIECBAgEBqAQFW6vYojgABAgQIECBAgAABAgQIECBAQIBlBggQIECAAAECBAgQIECAAAECBFILCLBSt0dxBAgQIECAAAECBAgQIECAAAECAiwzQIAAAQIECBAgQIAAAQIECBAgkFpAgJW6PYojQIAAAQIECBAgQIAAAQIECBAQYJkBAgQIECBAgAABAgQIECBAgACB1AICrNTtURwBAgQIECBAgAABAgQIECBAgIAAywwQIECAAAECBAgQIECAAAECBAikFhBgpW6P4ggQIECAAAECBAgQIECAAAECBARYZoAAAQIECBAgQIAAAQIECBAgQCC1gAArdXsUR4AAAQIECBAgQIAAAQIECBAgIMAyAwQIECBAgAABAgQIECBAgAABAqkFBFip26M4AgQIECBAgAABAgQIECBAgAABAZYZIECAAAECBAgQIECAAAECBAgQSC0gwErdHsURIECAAAECBAgQIECAAAECBAgIsMwAAQIECBAgQIAAAQIECBAgQIBAagEBVur2KI4AAQIECBAgQIAAAQIECBAgQECAZQYIECBAgAABAgQIECBAgAABAgRSCwiwUrdHcQQIECBAgAABAgQIECBAgAABAgIsM0CAAAECBAgQIECAAAECBAgQIJBaQICVuj2KI0CAAAECBAgQIECAAAECBAgQEGCZAQIECBAgQIAAAQIECBAgQIAAgdQCAqzU7VEcAQIECBAgQIAAAQIECBAgQICAAMsMECBAgAABAgQIECBAgAABAgQIpBYQYKVuj+IIECBAgAABAgQIECBAgAABAgQEWGaAAAECBAgQIECAAAECBAgQIEAgtYAAK3V7FEeAAAECBAgQIECAAAECBAgQICDAMgMECBAgQIAAAQIECBAgQIAAAQKpBQRYqdujOAIECBAgQIAAAQIECBAgQIAAAQGWGSBAgAABAgQIECBAgAABAgQIEEgtIMBK3R7FESBAgAABAgQIECBAgAABAgQICLDMAAECBAgQIECAAAECBAgQIECAQGoBAVbq9iiOAAECBAgQIECAAAECBAgQIEBAgGUGCBAgQIAAAQIECBAgQIAAAQIEUgsIsFK3R3EECBAgQIAAAQIECBAgQIAAAQICLDNAgAABAgQIECBAgAABAgQIECCQWkCAlbo9iiNAgAABAgQIECBAgAABAgQIEBBgmQECBAgQIECAAAECBAgQIECAAIHUAgKs1O1RHAECBAgQIECAAAECBAgQIECAgADLDBAgQIAAAQIECBAgQIAAAQIECKQWEGClbo/iCBAgQIAAAQIECBAgQIAAAQIEBFhmgAABAgQIECBAgAABAgQIECBAILWAACt1exRHgAABAgQIECBAgAABAgQIECAgwDIDBAgQIECAAAECBAgQIECAAAECqQUEWKnbozgCBAgQIECAAAECBAgQIECAAAEBlhkgQIAAAQIECBAgQIAAAQIECBBILSDASt0exREgQIAAAQIECBAgQIAAAQIECAiwzAABAgQIECBAgAABAgQIECBAgEBqAQFW6vYojgABAgQIECBAgAABAgQIECBAQIBlBggQIECAAAECBAgQIECAAAECBFILCLBSt0dxBAgQIECAAAECBAgQIECAAAECAiwzQIAAAQIECBAgQIAAAQIECBAgkFpAgJW6PYojQIAAAQIECBAgQIAAAQIECBAQYJkBAgQIECBAgAABAgQIECBAgACB1AICrNTtURwBAgQIECBAgAABAgQIECBAgIAAywwQIECAAAECBAgQIECAAAECBAikFhBgpW6P4ggQIECAAAECBAgQIECAAAECBARYZoAAAQIECBAgQIAAAQIECBAgQCC1gAArdXsUR4AAAQIECBAgQIAAAQIECBAgIMAyAwQIECBAgAABAgQIECBAgAABAqkFBFip26M4AgQIECBAgAABAgQIECBAgAABAZYZIECAAAECBAgQIECAAAECBAgQSC0gwErdHsURIECAAAECBAgQIECAAAECBAgIsMwAAQIECBAgQIAAAQIECBAgQIBAagEBVur2KI4AAQIECBAgQIAAAQIECBAgQECAZQYIECBAgAABAgQIECBAgAABAgRSCwiwUrdHcQQIECBAgAABAgQIECBAgAABAgIsM0CAAAECBAgQIECAAAECBAgQIJBaQICVuj2KI0CAAAECBAgQIECAAAECBAgQEGCZAQIECBAgQIAAAQIECBAgQIAAgdQCAqzU7VEcAQIECBAgQIAAAQIECBAgQICAAMsMECBAgAABAgQIECBAgAABAgQIpBYQYKVuj+IIECBAgAABAgQIECBAgAABAgQEWGaAAAECBAgQIECAAAECBAgQIEAgtYAAK3V7FEeAAAECBAgQIECAAAECBAgQICDAMgMECBAgQIAAAQIECBAgQIAAAQKpBQRYqdujOAIECBAgQIAAAQIECBAgQIAAAQGWGSBAgAABAgQIECBAgAABAgQIEEgtIMBK3R7FESBAgAABAgQIECBAgAABAgQICLDMAAECBAgQIECAAAECBAgQIECAQGoBAVbq9iiOAAECBAgQIECAAAECBAgQIEBAgGUGCBAgQIAAAQIECBAgQIAAAQIEUgsIsFK3R3EECBAgQIAAAQIECBAgQIAAAQICLDNAgAABAgQIECBAgAABAgQIECCQWkCAlbo9iiNAgAABAgQIECBAgAABAgQIEBBgmQECBAgQIECAAAECBAgQIECAAIHUAgKs1O1RHAECBAgQIECAAAECBAgQIECAgADLDBAgQIAAAQIECBAgQIAAAQIECKQWEGClbo/iCBAgQIAAAQIECBAgQIAAAQIEBFhmgAABAgQIECBAgAABAgQIECBAILWAACt1exRHgAABAgQIECBAgAABAgQIECAgwDIDBAgQIECAAAECBAgQIECAAAECqQUEWKnbozgCBAgQIECAAAECBAgQIECAAAEBlhkgQIAAAQIECBAgQIAAAQIECBBILSDASt0exREgQIAAAQIECBAgQIAAAQIECAiwzAABAgQIECBAgAABAgQIECBAgEBqAQFW6vYojgABAgQIECBAgAABAgQIECBAQIBlBggQIECAAAECBAgQIECAAAECBFILCLBSt0dxBAgQIECAAAECBAgQIECAAAECAiwzQIAAAQIECBAgQIAAAQIECBAgkFpAgJW6PYojQIAAAQIECBAgQIAAAQIECBAQYJkBAgQIECBAgAABAgQIECBAgACB1AICrNTtURwBAgQIECBAgAABAgQIECBAgIAAywwQIECAAAECBAgQIECAAAECBAikFhBgpW6P4ggQIECAAAECBAgQIECAAAECBARYZoAAAQIECBAgQIAAAQIECBAgQCC1gAArdXsUR4AAAQIECBAgQIAAAQIECBAgIMAyAwQIECBAgAABAgQIECBAgAABAqkFBFip26M4AgQIECBAgAABAgQIECBAgAABAZYZIECAAAECBAgQIECAAAECBAgQSC0gwErdHsURIECAAAECBAgQIECAAAECBAgIsMwAAQIECBAgQIAAAQIECBAgQIBAagEBVur2KI4AAQIECBAgQIAAAQIECBAgQECAZQYIECBAgAABAgQIECBAgAABAgRSCwiwUrdHcQQIECBAgAABAgQIECBAgAABAgIsM0CAAAECBAgQIECAAAECBAgQIJBaQICVuj2KI0CAAAECBAgQIECAAAECBAgQEGCZAQIECBAgQIAAAQIECBAgQIAAgdQCAqzU7VEcAQIECBAgQIAAAQIECBAgQICAAMsMECBAgAABAgQIECBAgAABAgQIpBYQYKVuj+IIECBAgAABAgQIECBAgAABAgQEWGaAAAECBAgQIECAAAECBAgQIEAgtYAAK3V7FEeAAAECBAgQIECAAAECBAgQICDAMgMECBAgQIAAAQIECBAgQIAAAQKpBQRYqdujOAIECBAgQIAAAQIECBAgQIAAAQGWGSBAgAABAgQIECBAgAABAgQIEEgtIMBK3R7FESBAgAABAgQIECBAgAABAgQICLDMAAECBAgQIECAAAECBAgQIECAQGoBAVbq9iiOAAECBAgQIECAAAECBAgQIEBAgGUGCBAgQIAAAQIECBAgQIAAAQIEUgsIsFK3R3EECBAgQIAAAQIECBAgQIAAAQICLDNAgAABAgQIECBAgAABAgQIECCQWkCAlbo9iiNAgAABAgQIECBAgAABAgQIEBBgmQECBAgQIECAAAECBAgQIECAAIHUAgKs1O1RHAECBAgQIECAAAECBAgQIECAgADLDBAgQIAAAQIECBAgQIAAAQIECKQWEGClbo/iCBAgQIAAAQIECBAgQIAAAQIEBFhmgAABAgQIECBAgAABAgQIECBAILWAACt1exRHgAABAgQIECBAgAABAgQIECAgwDIDBAgQIECAAAECBAgQIECAAAECqQUEWKnbozgCBAgQIECAAAECBAgQIECAAAEBlhkgQIAAAQIECBAgQIAAAQIECBBILSDASt0exREgQIAAAQIECBAgQIAAAQIECAiwzAABAgQIECBAgAABAgQIECBAgEBqAQFW6vYojgABAgQIECBAgAABAgQIECBAQIBlBggQIECAAAECBAgQIECAAAECBFILCLBSt0dxBAgQIECAAAECBAgQIECAAAECAiwzQIAAAQIECBAgQIAAAQIECBAgkFpAgJW6PYojQIAAAQIECBAgQIAAAQIECBAQYJkBAgQIECBAgAABAgQIECBAgACB1AICrNTtURwBAgQIECBAgAABAgQIECBAgIAAywwQIECAAAECBAgQIECAAAECBAikFhBgpW6P4ggQIECAAAECBAgQIECAAAECBARYZoAAAQIECBAgQIAAAQIECBAgQCC1gAArdXsUR4AAAQIECBAgQIAAAQIECBAgIMAyAwQIECBAgAABAgQIECBAgAABAqkFBFip26M4AgQIECBAgAABAgQIECBAgAABAZYZIECAAAECBAgQIECAAAECBAgQSC0gwErdHsURIECAAAECBAgQIECAAAECBAgIsMwAAQIECBAgQIAAAQIECBAgQIBAagEBVur2KI4AAQIECBAgQIAAAQIECBAgQECAZQYIECBAgAABAgQIECBAgAABAgRSCwiwUrdHcQQIECBAgAABAgQIECBAgAABAgIsM0CAAAECBAgQIECAAAECBAgQIJBaQICVuj2KI0CAAAECBAgQIECAAAECBAgQEGCZAQIECBAgQIAAAQIECBAgQIAAgdQCAqzU7VEcAQIECBAgQIAAAQIECBAgQICAAMsMECBAgAABAgQIECBAgAABAgQIpBYQYKVuj+IIECBAgAABAgQIECBAgAABAgQEWGaAAAECBAgQIECAAAECBAgQIEAgtYAAK3V7FEeAAAECBAgQIECAAAECBAgQICDAMgMECBAgQIAAAQIECBAgQIAAAQKpBQRYqdujOAIECBAgQIAAAQIECBAgQIAAAQGWGSBAgAABAgQIECBAgAABAgQIEEgtIMBK3R7FESBAgAABAgQIECBAgAABAgQICLDMAAECBAgQIECAAAECBAgQIECAQGoBAVbq9iiOAAECBAgQIECAAAECBAgQIEBAgGUGCBAgQIAAAQIECBAgQIAAAQIEUgsIsFK3R3EECBAgQIAAAQIECBAgQIAAAQICLDNAgAABAgQIECBAgAABAgQIECCQWkCAlbo9iiNAgAABAgQIECBAgAABAgQIEBBgmQECBAgQIECAAAECBAgQIECAAIHUAgKs1O1RHAECBAgQIECAAAECBAgQIECAgADLDBAgQIAAAQIECBAgQIAAAQIECKQWEGClbo/iCBAgQIAAAQIECBAgQIAAAQIEBFhmgAABAgQIECBAgAABAgQIECBAILWAACt1exRHgAABAgQIECBAgAABAgQIECAgwDIDBAgQIECAAAECBAgQIECAAAECqQUEWKnbozgCBAgQIECAAAECBAgQIECAAAEBlhkgQIAAAQIECBAgQIAAAQIECBBILSDASt0exREgQIAAAQIECBAgQIAAAQIECAiwzAABAgQIECBAgAABAgQIECBAgEBqAQFW6vYojgABAgQIECBAgAABAgQIECBAQIBlBggQIECAAAECBAgQIECAAAECBFILCLBSt0dxBAgQIECAAAECBAgQIECAAAECAiwzQIAAAQIECBAgQIAAAQIECBAgkFpAgJW6PYojQIAAAQIECBAgQIAAAQIECBAQYJkBAgQIECBAgAABAgQIECBAgACB1AICrNTtURwBAgQIECBAgAABAgQIECBAgIAAywwQIECAAAECBAgQIECAAAECBAikFhBgpW6P4ggQIECAAAECBAgQIECAAAECBARYZoAAAQIECBAgQIAAAQIECBAgQCC1gAArdXsUR4AAAQIECBAgQIAAAQIECBAgIMAyAwQIECBAgAABAgQIECBAgAABAqkFBFip26M4AgQIECBAgAABAgQIECBAgAABAZYZIECAAAECBAgQIECAAAECBAgQSC0gwErdHsURIECAAAECBAgQIECAAAECBAgIsMwAAQIECBAgQIAAAQIECBAgQIBAagEBVur2KI4AAQIECBAgQIAAAQIECBAgQECAZQYIECBAgAABAgQIECBAgAABAgRSCwiwUrdHcQQIECBAgAABAgQIECBAgAABAgIsM0CAAAECBAgQIECAAAECBAgQIJBaQICVuj2KI0CAAAECBAgQIECAAAECBAgQEGCZAQIECBAgQIAAAQIECBAgQIAAgdQCAqzU7VEcAQIECBAgQIAAAQIECBAgQICAAMsMECBAgAABAgQIECBAgAABAgQIpBYQYKVuj+IIECBAgAABAgQIECBAgAABAgQEWGaAAAECBAgQIECAAAECBAgQIEAgtYAAK3V7FEeAAAECBAgQIECAAAECBAgQICDAMgMECBAgQIAAAQIECBAgQIAAAQKpBQRYqdujOAIECBAgQIAAAQIECBAgQIAAAQGWGSBAgAABAgQIECBAgAABAgQIEEgtIMBK3R7FESBAgAABAgQIECBAgAABAgQICLDMAAECBAgQIECAAAECBAgQIECAQGoBAVbq9iiOAAECBAgQIECAAAECBAgQIEBAgGUGCBAgQIAAAQIECBAgQIAAAQIEUgsIsFK3R3EECBAgQIAAAQIECBAgQIAAAQICLDNAgAABAgQIECBAgAABAgQIECCQWkCAlbo9iiNAgAABAgQIECBAgAABAgQIEBBgmQECBAgQIECAAAECBAgQIECAAIHUAgKs1O1RHAECBAgQIECAAAECBAgQIECAgADLDBAgQIAAAQIECBAgQIAAAQIECKQWEGClbo/iCBAgQIAAAQIECBAgQIAAAQIEBFhmgAABAgQIECBAgAABAgQIECBAILWAACt1exRHgAABAgQIECBAgAABAgQIECAgwDIDBAgQIECAAAECBAgQIECAAAECqQUEWKnbozgCBAgQIECAAAECBAgQIECAAAEBlhkgQIAAAQIECBAgQIAAAQIECBBILSDASt0exREgQIAAAQIECBAgQIAAAQIECAiwzAABAgQIECBAgAABAgQIECBAgEBqAQFW6vYojgABAgQIECBAgAABAgQIECBAQIBlBggQIECAAAECBAgQIECAAAECBFILCLBSt0dxBAgQIECAAAECBAgQIECAAAECAiwzQIAAAQIECBAgQIAAAQIECBAgkFpAgJW6PYojQIAAAQIECBAgQIAAAQIECBAQYJkBAgQIECBAgAABAgQIECBAgACB1AICrNTtURwBAgQIECBAgAABAgQIECBAgIAAywwQIECAAAECBAgQIECAAAECBAikFhBgpW6P4ggQIECAAAECBAgQIECAAAECBARYZoAAAQIECBAgQIAAAQIECBAgQCC1gAArdXsUR4AAAQIECBAgQIAAAQIECBAgIMAyAwQIECBAgAABAgQIECBAgAABAqkFBFip26M4AgQIECBAgAABAgQIECBAgAABAZYZIECAAAECBAgQIECAAAECBAgQSC0gwErdHsURIECAAAECBAgQIECAAAECBAgIsMwAAQIECBAgQIAAAQIECBAgQIBAagEBVup2pUswAAAgAElEQVT2KI4AAQIECBAgQIAAAQIECBAgQECAZQYIECBAgAABAgQIECBAgAABAgRSCwiwUrdHcQQIECBAgAABAgQIECBAgAABAgIsM0CAAAECBAgQIECAAAECBAgQIJBaQICVuj2KI0CAAAECBAgQIECAAAECBAgQEGCZAQIECBAgQIAAAQIECBAgQIAAgdQCAqzU7VEcAQIECBAgQIAAAQIECBAgQICAAMsMECBAgAABAgQIECBAgAABAgQIpBYQYKVuj+IIECBAgAABAgQIECBAgAABAgQEWGaAAAECBAgQIECAAAECBAgQIEAgtYAAK3V7FEeAAAECBAgQIECAAAECBAgQICDAMgMECBAgQIAAAQIECBAgQIAAAQKpBQRYqdujOAIECBAgQIAAAQIECBAgQIAAAQGWGSBAgAABAgQIECBAgAABAgQIEEgtIMBK3R7FESBAgAABAgQIECBAgAABAgQICLDMAAECBAgQIECAAAECBAgQIECAQGoBAVbq9iiOAAECBAgQIECAAAECBAgQIEBAgGUGCBAgQIAAAQIECBAgQIAAAQIEUgsIsFK3R3EECBAgQIAAAQIECBAgQIAAAQICLDNAgAABAgQIECBAgAABAgQIECCQWkCAlbo9iiNAgAABAgQIECBAgAABAgQIEBBgmQECBAgQIECAAAECBAgQIECAAIHUAgKs1O1RHAECBAgQIECAAAECBAgQIECAgADLDBAgQIAAAQIECBAgQIAAAQIECKQWEGClbo/iCBAgQIAAAQIECBAgQIAAAQIEBFhmgAABAgQIECBAgAABAgQIECBAILWAACt1exRHgAABAgQIECBAgAABAgQIECAgwDIDBAgQIECAAAECBAgQIECAAAECqQUEWKnbozgCBAgQIECAAAECBAgQIECAAAEBlhkgQIAAAQIECBAgQIAAAQIECBBILSDASt0exREgQIAAAQIECBAgQIAAAQIECAiwzAABAgQIECBAgAABAgQIECBAgEBqAQFW6vYojgABAgQIECBAgAABAgQIECBAQIBlBggQIECAAAECBAgQIECAAAECBFILCLBSt0dxBAgQIECAAAECBAgQIECAAAECAiwzQIAAAQIECBAgQIAAAQIECBAgkFpAgJW6PYojQIAAAQIECBAgQIAAAQIECBAQYJkBAgQIECBAgAABAgQIECBAgACB1AICrNTtURwBAgQIECBAgAABAgQIECBAgIAAywwQIECAAAECBAgQIECAAAECBAikFhBgpW6P4ggQIECAAAECBAgQIECAAAECBARYZoAAAQIECBAgQIAAAQIECBAgQCC1gAArdXsUR4AAAQIECBAgQIAAAQIECBAgIMAyAwQIECBAgAABAgQIECBAgAABAqkFBFip26M4AgQIECBAgAABAgQIECBAgAABAZYZIECAAAECBAgQIECAAAECBAgQSC0gwErdHsURIECAAAECBAgQIECAAAECBAgIsMwAAQIECBAgQIAAAQIECBAgQIBAagEBVur2KI4AAQIECBAgQIAAAQIECBAgQECAZQYIECBAgAABAgQIECBAgAABAgRSCwiwUrdHcQQIECBAgAABAgQIECBAgAABAgIsM0CAAAECBAgQIECAAAECBAgQIJBaQICVuj2KI0CAAAECBAgQIECAAAECBAgQEGCZAQIECBAgQIAAAQIECBAgQIAAgdQCAqzU7VEcAQIECBAgQIAAAQIECBAgQICAAMsMECBAgAABAgQIECBAgAABAgQIpBYQYKVuj+IIECBAgAABAgQIECBAgAABAgQEWGaAAAECBAgQIECAAAECBAgQIEAgtYAAK3V7FEeAAAECBAgQIECAAAECBAgQICDAMgMECBAgQIAAAQIECBAgQIAAAQKpBQRYqdujOAIECBAgQIAAAQIECBAgQIAAAQGWGSBAgAABAgQIECBAgAABAgQIEEgtIMBK3R7FESBAgAABAgQIECBAgAABAgQICLDMAAECBAgQIECAAAECBAgQIECAQGoBAVbq9iiOAAECBAgQIECAAAECBAgQIEBAgGUGCBAgQIAAAQIECBAgQIAAAQIEUgsIsFK3R3EECBAgQIAAAQIECBAgQIAAAQICLDNAgAABAgQIECBAgAABAgQIECCQWkCAlbo9iiNAgAABAgQIECBAgAABAgQIEBBgmQECBAgQIECAAAECBAgQIECAAIHUAgKs1O1RHAECBAgQIECAAAECBAgQIECAgADLDBAgQIAAAQIECBAgQIAAAQIECKQWEGClbo/iCBAgQIAAAQIECBAgQIAAAQIEBFhmgAABAgQIECBAgAABAgQIECBAILWAACt1exRHgAABAgQIECBAgAABAgQIECAgwDIDBAgQIECAAAECBAgQIECAAAECqQUEWKnbozgCBAgQIECAAAECBAgQIECAAAEBlhkgQIAAAQIECBAgQIAAAQIECBBILSDASt0exREgQIAAAQIECBAgQIAAAQIECAiwzAABAgQIECBAgAABAgQIECBAgEBqAQFW6vYojgABAgQIECBAgAABAgQIECBAQIBlBggQIECAAAECBAgQIECAAAECBFILCLBSt0dxBAgQIECAAAECBAgQIECAAAECAiwzQIAAAQIECBAgQIAAAQIECBAgkFpAgJW6PYojQIAAAQIECBAgQIAAAQIECBAQYJkBAgQIECBAgAABAgQIECBAgACB1AICrNTtURwBAgQIECBAgAABAgQIECBAgIAAywwQIECAAAECBAgQIECAAAECBAikFhBgpW6P4ggQIECAAAECBAgQIECAAAECBARYZoAAAQIECBAgQIAAAQIECBAgQCC1gAArdXsUR4AAAQIECBAgQIAAAQIECBAgIMAyAwQIECBAgAABAgQIECBAgAABAqkFBFip26M4AgQIECBAgAABAgQIECBAgAABAZYZIECAAAECBAgQIECAAAECBAgQSC0gwErdHsURIECAAAECBAgQIECAAAECBAgIsMwAAQIECBAgQIAAAQIECBAgQIBAagEBVur2KI4AAQIECBAgQIAAAQIECBAgQECAZQYIECBAgAABAgQIECBAgAABAgRSCwiwUrdHcQQIECBAgAABAgQIECBAgAABAgIsM0CAAAECBAgQIECAAAECBAgQIJBaQICVuj2KI0CAAAECBAgQIECAAAECBAgQEGCZAQIECBAgQIAAAQIECBAgQIAAgdQCAqzU7VEcAQIECBAgQIAAAQIECBAgQICAAMsMECBAgAABAgQIECBAgAABAgQIpBYQYKVuj+IIECBAgAABAgQIECBAgAABAgQEWGaAAAECBAgQIECAAAECBAgQIEAgtYAAK3V7FEeAAAECBAgQIECAAAECBAgQICDAMgMECBAgQIAAAQIECBAgQIAAAQKpBQRYqdujOAIECBAgQIAAAQIECBAgQIAAAQGWGSBAgAABAgQIECBAgAABAgQIEEgtIMBK3R7FESBAgAABAgQIECBAgAABAgQICLDMAAECBAgQIECAAAECBAgQIECAQGoBAVbq9iiOAAECBAgQIECAAAECBAgQIEBAgGUGCBAgQIAAAQIECBAgQIAAAQIEUgsIsFK3R3EECBAgQIAAAQIECBAgQIAAAQICLDNAgAABAgQIECBAgAABAgQIECCQWkCAlbo9iiNAgAABAgQIECBAgAABAgQIEBBgmQECBAgQIECAAAECBAgQIECAAIHUAgKs1O1RHAECBAgQIECAAAECBAgQIECAgADLDBAgQIAAAQIECBAgQIAAAQIECKQWEGClbo/iCBAgQIAAAQIECBAgQIAAAQIEBFhmgAABAgQIECBAgAABAgQIECBAILWAACt1exRHgAABAgQIECBAgAABAgQIECAgwDIDBAgQIECAAAECBAgQIECAAAECqQUEWKnbozgCBAgQIECAAAECBAgQIECAAAEBlhkgQIAAAQIECBAgQIAAAQIECBBILSDASt0exREgQIAAAQIECBAgQIAAAQIECAiwzAABAgQIECBAgAABAgQIECBAgEBqAQFW6vYojgABAgQIECBAgAABAgQIECBAQIBlBggQIECAAAECBAgQIECAAAECBFILCLBSt0dxBAgQIECAAAECBAgQIECAAAECAiwzQIAAAQIECBAgQIAAAQIECBAgkFpAgJW6PYojQIAAAQIECBAgQIAAAQIECBAQYJkBAgQIECBAgAABAgQIECBAgACB1AICrNTtURwBAgQIECBAgAABAgQIECBAgIAAywwQIECAAAECBAgQIECAAAECBAikFhBgpW6P4ggQIECAAAECBAgQIECAAAECBARYZoAAAQIECBAgQIAAAQIECBAgQCC1gAArdXsUR4AAAQIECBAgQIAAAQIECBAgIMAyAwQIECBAgAABAgQIECBAgAABAqkFBFip26M4AgQIECBAgAABAgQIECBAgAABAZYZIECAAAECBAgQIECAAAECBAgQSC0gwErdHsURIECAAAECBAgQIECAAAECBAgIsMwAAQIECBAgQIAAAQIECBAgQIBAagEBVur2KI4AAQIECBAgQIAAAQIECBAgQECAZQYIECBAgAABAgQIECBAgAABAgRSCwiwUrdHcQQIECBAgAABAgQIECBAgAABAgIsM0CAAAECBAgQIECAAAECBAgQIJBaQICVuj2KI0CAAAECBAgQIECAAAECBAgQEGCZAQIECBAgQIAAAQIECBAgQIAAgdQCAqzU7VEcAQIECBAgQIAAAQIECBAgQICAAMsMECBAgAABAgQIECBAgAABAgQIpBYQYKVuj+IIECBAgAABAgQIECBAgAABAgQEWGaAQB8FFl100bLYYouVQYMGTfadr7/+enn44YfLs88+28c9e/mUBGadddaywgorlDnmmGOKSH/+85/LfffdB5EAAQIECBAgQIAAAQIEulBAgNWFTXVK1QpMP/30ZciQIeXaa68tK620Up92ftFFF5Uvf/nLZeLEieXtt9/u03t7/cUREG6//fbl7LPP7jPF8ssvXx566KHy1ltv9fm93kCAAAECBAgQIECAAAEC+QQEWPl6oqJEAuedd15Za621Slx1NZBt7Nix5eabby577rnnQHbTE+/daqutyn777VfWWWedMuOMM/b7nF999dVy++23ly233LKMHz++3/vxRgIECBAgQIAAAQIECBDovIAAq/M9UEEygY9//OPl4IMPLnvvvXeJq6+q3F555ZVy6KGHlhNPPLG88cYbVe669vvaaaedyr777ltWXnnlys8lgshTTjmlESLaCBAgQIAAAQIECBAgQKB+AgKs+vVMxS0SmG666coqq6zSuGqn6uDqwyW/8847jaDm3nvvbdHZ1Ge3c801V7npppvKsssu2/KiR4wYUY455hjhYculHYAAAQIECBAgQIAAAQLVCgiwqvW0txoLPP7442Xo0KElgqx2bLEmVlwVNGzYsHYcLuUxNttss/KrX/2qDB48uG31TZgwobEY/Jtvvtm2YzoQAQIECBAgQIAAAQIECAxMQIA1MD/v7gKBWGfplltuKauvvnpHziZub9t111177qqg4447rnGb5kDWuepvw5555pmy1157lUsvvbS/u/A+AgQIECBAgAABAgQIEGijgACrjdgOlU9gpplmKtdcc01Zd911O1rcJZdcUmINqF5ZbHz48OHliCOO6Kj5a6+9Vr7yla8IsTraBQcnQIAAAQIECBAgQIBAcwICrOacvKoLBeLKnwceeKAsueSSKc4uFnbfZ599UtTSyiLiHI8//vhWHqLpfcdC+quuumoZM2ZM0+/xQgIECBAgQIAAAQIECBBov4AAq/3mjphE4Nlnny3zzz9/kmreLeO0004rX/va11LVVGUxe+yxR/nP//zPtq0z1kztr776ahkyZEiJNclsBAgQIECAAAECBAgQIJBTQICVsy+qarHAV7/61XLWWWe1+Ch93308nfALX/hCiVsKu3F74oknyqKLLpru1EaPHt2xNdDSYSiIAAECBAgQIECAAAECCQUEWAmboqTWCqy00krl7rvvbu1BBrD3WJtpkUUWKc8///wA9pLrrdNPP3158MEHy1JLLZWrsPdVs9tuu5UzzjgjbX0KI0CAAAECBAgQIECAQC8LCLB6ufs9eu6//OUvy3bbbZf67A844IBy7LHHpq6xL8Utu+yy6deZivWwYlF/GwECBAgQIECAAAECBAjkExBg5euJilooMM8885S//e1vLTxCdbtebbXVyp133lndDju4p5dffrnMPvvsHayguUPff//9ZYUVVmjuxV5FgAABAgQIECBAgAABAm0TEGC1jdqBOi0w3XTTlccff7wMHTq006U0dfy4AiuuxKr7Fmt6XXjhhbU4jTfffLMsscQS5cknn6xFvYokQIAAAQIECBAgQIBArwgIsHql086zsa5ULCIeQVYdtljQPdaOqvt20UUXlW233bY2p7HDDjuUCy64oDb1KpQAAQIECBAgQIAAAQK9ICDA6oUuO8eGwDe/+c1y0kkn1UojFhWPxcXrusWaUhMmTKhd+XUJOWsHq2ACBAgQIECAAAECBAj0U0CA1U84b6ufQFzRVLdt1KhRZZNNNqlb2e/V+9Of/rQMGzasdvWvvvrqZfTo0bWrW8EECBAgQIAAAQIECBDoVgEBVrd21nl9QGCVVVap5YLor7zySpljjjlq281zzz237LjjjrWrf8SIEeXwww+vXd0KJkCAAAECBAgQIECAQLcKCLC6tbPO6wMCu+++eznttNNqqVLn29nGjRtXywDuqKOOKsOHD6/lvCiaAAECBAgQIECAAAEC3SggwOrGrjqnjwjsueee5eSTT66lzMILL1yefvrpWtZex9s2A3rixIllxhlnrKW5ogkQIECAAAECBAgQINCNAgKsbuyqc/qIQCzeHou413EbM2ZMWX755WtXejxBMYKgum51vvKtrubqJkCAAAECBAgQIECAwJQEBFhmoycEnnvuuTL33HPX8lxfe+21Mttss9Wu9ro+gXAStACrdiOnYAIECBAgQIAAAQIEulhAgNXFzXVq/ydQ11vZ4gzqejvb+uuvX66//vrajqEAq7atUzgBAgQIECBAgAABAl0oIMDqwqY6pY8KCLDaPxUCrPabOyIBAgQIECBAgAABAgS6VUCA1a2ddV4fEKhzgPX3v/+9fOxjH6tdR6PmuP2xrpsrsOraOXUTIECAAAECBAgQINCNAgKsbuyqc/qIwOjRo8uqq65aS5kHHnigLLfccrWr3SLutWuZggkQIECAAAECBAgQIJBWQICVtjUKq1Lg4IMPLocddliVu2zbvtZcc81y++23t+14VR6ozle+uQKrykmwLwIECBAgQIAAAQIECAxMQIA1MD/vronAHnvsUU499dSaVPvBMuscpNQ1wPrtb39bPvWpT9VyXhRNgAABAgQIECBAgACBbhQQYHVjV53TRwR23XXXcvrpp9dO5q233iqDBg2qXd2TCr7ooovKtttuW7v6R44cWdsr9mqHrWACBAgQIECAAAECBAg0ISDAagLJS+ovMGTIkPLSSy/V7kTqfiXQ2WefXXbaaafaue+3337l+OOPr13dCiZAgAABAgQIECBAgEC3CgiwurWzzusjAq+++mqZddZZayVz5ZVXlk033bRWNb+/2I033rhcddVVtat/xhlnLBMnTqxd3QomQIAAAQIECBAgQIBAtwoIsLq1s87rIwJrrLFGue2222ols9lmm5UrrriiVjV/uNi6rYP15JNPlqFDh9baXPEECBAgQIAAAQIECBDoNgEBVrd11PlMUWCuueYqjz/+eIn/ty5bnRdwn2Q8bty4Msccc9SFvKy11lq1Czprg6tQAgQIECBAgAABAgQI9FNAgNVPOG+rp8All1xStt5661oU/+abb5bBgwfXotapFbn33nuXE088sRbn8dprr5U555yzxOL5NgIECBAgQIAAAQIECBDIIyDAytMLlbRJ4I033qjFk/2uvvrqEmtI1X3beeedy5lnnlmL01h44YXL008/XYtaFUmAAAECBAgQIECAAIFeEhBg9VK3nWtD4Oc//3nZbbfd0msceOCB5cgjj0xf57QKrEuAdeONN5b1119/WqfjfydAgAABAgQIECBAgACBDggIsDqA7pCdFZhhhhnKmDFjytJLL93ZQqZx9OHDh5ejjjoqdY3NFLfjjjuWc889t5mXdvQ1G264Ybnuuus6WoODEyBAgAABAgQIECBAgMDkBQRYJqMnBdZbb71yww03pD73bgmwVlpppXL33Xento4r8s4444zUNSqOAAECBAgQIECAAAECvSwgwOrl7vf4uccVWGPHjk2r0C0B1pAhQ8pLL72U1vnZZ58tCy64YNr6FEaAAAECBAgQIECAAAECpQiwTEHPCkw33XRl5MiR5dBDD01psP/++5fjjjsuZW19KSpu2cz6VL/nn3++xMLt48eP78speS0BAgQIECBAgAABAgQItFlAgNVmcIfLJ3DEEUeUuNop29YtAdb0009fJk6cmI23sQ7a8ssvn64uBREgQIAAAQIECBAgQIDARwUEWKaCQCllp512KmeffXYqiwMOOKAce+yxqWrqTzEZr8C65557ysorr9yf0/EeAgQIECBAgAABAgQIEOiAgACrA+gOmVMg1mp67rnnyowzzpiiwG5ZA2v++ecvsc5Ulm3TTTcto0aNKm+//XaWktRBgAABAgQIECBAgAABAtMQEGAZEQLvE5h33nnLD37wg/KNb3yj4y7dEmB95jOfKdddd13HPW+88cbyne98p9x8880dr0UBBAgQIECAAAECBAgQINA3AQFW37y8ukcEhg4dWvbbb79GkDV48OCOnHW3BFg777xzOfPMMztiGAe9/PLLG8f/1a9+1bEaHJgAAQIECBAgQIAAAQIEBiYgwBqYn3f3gMBRRx1Vtthii7LEEkuUWJC8XduIESPK4Ycf3q7Dtew4nQiwnnrqqfLQQw+VLbfcsrz55pstOzc7JkCAAAECBAgQIECAAIH2CAiw2uPsKDUXiOAqbi9ceumlG1f0zD777C0/o/vuu6+suOKKLT9Oqw/QzgBr2LBh5ZJLLikvvvhief3111t9avZPgAABAgQIECBAgAABAm0SEGC1CdphuktgwQUXLOuvv35jTaUll1yyJSf31ltvlUGDBrVk3+3caTxN8eijj27JIcePH1/22Wefcv/995c77rijJcewUwIECBAgQIAAAQIECBDovIAAq/M9UEHNBTbZZJOy++67ly984Qtluunin1R1W9X7q66y5vf08ssvV37F2p133lnOPffccsIJJzRfiFcSIECAAAECBAgQIECAQG0FBFi1bZ3CswnMMsss5bHHHisLLLBAZaUttdRS5eGHH65sf53Y0TvvvFPZYePWwFhY/8ILL6xsn3ZEgAABAgQIECBAYKACc845Z5lxxhkHupvG+1955RXLYVQiaSfdJiDA6raOOp+OCswwwwxlvfXWK9dee20ldcR6W1tttVUl++rETuaYY44ybty4Sg4dtyKedtpple2vkqLshAABAgQIECBAgEAp5ZprrilrrLFGJRY77bRTufTSSyvZl50Q6CYBAVY3ddO5pBGIRd/jCYLDhw8fUE2jRo0qcYtiXbcInOL2yoFsjzzySPnc5z5XnnjiiYHsxnsJECBAgAABAgQItEzglltuKWuvvXYl+4+lSS6++OJK9mUnBLpJQIDVTd10LukEtttuu8YC5ossski/anvhhRfK3HPP3a/3ZnjTOeecU77yla/0u5QIAI866qh+v98bCRAgQIAAAQIECLRDQIDVDmXH6HUBAVavT4Dzb7lAPEnwj3/8Y/nHf/zHfh0rruaqch2pfhXRzzdNmDChzDTTTH1+92uvvVY+/elPl7vvvrvP7/UGAgQIECBAgAABAu0WEGC1W9zxelFAgNWLXXfOHRE4//zzy/bbb9/nY19yySVl22237fP7Ov2GeILi22+/3ecyxo4dW9ZZZ53y0ksv9fm93kCAAAECBAgQIECgEwICrE6oO2avCQiweq3jzrejAsOGDSs//elP+1TDxIkTK3uiSZ8OPMAXX3bZZWXLLbfs015i8cuNNtqoT+/xYgIECBAgQIAAAQKdFhBgdboDjt8LAgKsXuiyc0wlsNpqq5Xf/va3ZfDgwU3VFbcPxnvuuuuupl6f4UXxCOE//elPZb755mu6nKuuuqqxWLuNAAECBAgQIECAQN0EBFh165h66yggwKpj19Rce4GZZ565jB8/vsRtds1sG2ywQbn++uubeWmK1yy99NIlbgVsdjvrrLPKLrvs0uzLvY5AbQXi33yz/+6rOMkIwOu6ht60zj/WB2zn1s2W7XR0LAJTEqj652N/ljHI0p0qf77V2SFLP5qtQ4DVrJTXEei/gACr/3beSWBAAiussEK59957m9pHLGo+22yzNfXaDC867LDDysEHH9xUKbE22Je//OWmXutFBOosEB/Obr311rLSSiu17TTOO++8sttuu7XteO06UITk99xzT7sO1zjOscceW0aMGNHWYzoYgV4SiC+yTjnllEpO+Y033ihzzDFHJftq907id8Vf/vKXMmTIkEoOvemmm9bqS9BKTrpDOxFgdQjeYXtKQIDVU+12stkE1ltvvXLDDTc0VVY8le/mm29u6rWdfFFfFm+/8MILyxe/+MVOluvYBNomEP82Ro8eXVZZZZW2HfPVV18ts88+e9uO164D3X777WX11Vdv1+EaxznqqKPK8OHD23pMByPQSwK77757Oe200yo55Qiw+vMU5EoOPsCdxO+KF198sbIA67Of/Wy59tprB1iVtzcjIMBqRslrCAxMQIA1MD/vJjBggfjD4oorrpjmQu0nnHBC2XfffQd8vFbvYM899ywnn3zyNA9z/7paPikAACAASURBVP33l7gKzUagVwQ6EWCF7eabb15+85vfdA1zXFUxbty4tp+PAKvt5A7YYwICrHcbLsCq7+ALsOrbO5XXR0CAVZ9eqbRLBeIPlYsuuqhss802Uz3DujyN8Mwzzyw777zzVM/llVdeKXPOOWexLkOXDrXTmqxApwKsJ598sgwdOrRrurLXXnuVn/zkJ20/HwFW28mnesClllqqxJV4M8wwQyWFLbTQQo2rXmydExBgCbA6N33VHFmAVY2jvRCYmoAAy3wQSCIQV0jEOgVT22JtqZEjRyap+KNlxAeJt956a6r1jRkzpqy44orCq7RdVFirBDoVYL3++utlscUWK88880yrTq2t+7388svLFlts0dZjxsEEWG0nn+oBP/nJT5a4kreqAGvuuecuL7zwQq6T7LFqBFgCrLqPvACr7h1Ufx0EBFh16JIae0IgnjgTTxqMta6mtD366KMl/mifVkjUKbBLL720bLXVVlM8fDzFK26ZvO666zpVouMS6JhApwKsOOEIx6+88sqOnXtVBx40aFCJtW06sQmwOqE+5WMKsHL1o4pqBFgCrCrmqJP7EGB1Ut+xe0VAgNUrnXaetRBYdtllS1yhNLVt8cUXL48//njK85kwYcJUF03dcccdSzwVzUagFwU6GWCFdxy/7tvRRx9dDjjggI6chgCrI+xTPKgAK1c/qqhGgCXAqmKOOrkPAVYn9R27VwQEWL3SaedZG4F4PPzYsWOnWO/48ePLrLPOmu58zj///LL99ttPsa7jjjuu7L///unqVhCBdgl0OsBaddVVy1133dWu023Jca666qqy8cYbt2Tf09qpAGtaQu393wVY7fVux9EEWAKsdsxZK48hwGqlrn0T+P8/I0sp78AgQCCPQHzI/cUvflG22267KRYVtxnefPPNaYqeZ555ytNPP11mnnnmydYU64rEItIvv/xympoVQqDdAp0OsPbZZ59y4okntvu0Kz1erOc1ePDgSvfZ7M4EWM1Kted1Aqz2OLfzKAIsAVY7560VxxJgtULVPgl8UMAVWCaCQFKBBx54oCyzzDKTrW7UqFFlk002SVP5LrvsUs4444zJ1vP3v/+9zDvvvOW1115LU69CCHRCoNMBVizi/olPfKITp17JMb/97W+XY489tpJ99WcnAqz+qLXuPQKs1tl2as8CLAFWp2avquMKsKqStB8CUxYQYJkOAkkF1lprrXLrrbdOsbr111+/3HjjjR2vfpZZZilxW+OUth//+MclPnjaCPS6QKcDrPBfcsklyyOPPFK7VsRDLuIKzk7ePi3AyjU2Aqxc/aiiGgGWAKuKOerkPgRYndR37F4REGD1SqedZy0F9thjj3LqqadOtvZ4kt+GG27Y8fOKBZVjYeXJbQ899FDjqYk2AgTeXUR99OjRZZVVVukYxwUXXFB22GGHjh2/vwdeYYUVyt13310iyOrUJsDqlPzkjyvAytWPKqoRYAmwqpijTu5DgNVJfcfuFQEBVq902nnWUmD22Wef6rpRsU7WRRdd1LFziw/kr776avnYxz422RpiQfrf//73HavPgQlkEsgQYMVadQsvvHAmlqZq+cY3vlFOOeWUpl7bqhcJsFol27/9CrD655b5XQIsAVbm+WymNgFWM0peQ2BgAgKsgfl5N4GWC8TC6OPGjZvswsVPPfVU45agWNi4E9sVV1xRPve5z0320KeffnqJP0ZtBAj834eSTl+BFZXEOlixHladtrfeeqvMMMMMHS1ZgNVR/o8cXICVqx9VVCPAEmBVMUed3IcAq5P6jt0rAgKsXum086y1wK9//euy2WabTfYcllhiifLoo4+2/fziw2R8qJzc9thjj5WlllqqTJw4se11OSCBrAIZrsAKm3gq6Nxzz52V6SN1bbDBBuXaa6/teL0CrI634AMFCLBy9aOKagRYAqwq5qiT+xBgdVLfsXtFQIDVK512nrUWGDRoUImn+U3uCoS33367zDbbbI3/vZ3bfffdV5ZffvnJHnLZZZctDz74YDvLcSwC6QWyBFjxRNBFF120PPfcc+nNosARI0aUH/7whx2vVYDV8RYIsHK1oPJqBFgCrMqHqs07FGC1GdzhelJAgNWTbXfSdRSY2h92Rx55ZDnwwAPbdlqxCPWdd9452eP95je/KZtvvnnbanEgAnURyBJghdcaa6xR7rjjjlrQxe2OCyywQMdrFWB1vAUCrFwtqLwaAZYAq/KhavMOBVhtBne4nhQQYPVk2510XQUeeOCBsswyy0y2/Pjvx44d2/JTW3DBBRvHmWOOOT5yrHfeeafMM888jVuUbAQIfFAgU4AVT/Tr5NMQm52NxRZbrMQtyRk2AVaGLvxfDW4hzNWPKqoRYAmwqpijTu5DgNVJfcfuFQEBVq902nl2hcBaa61Vbr311smeS4RHcYth/L+t2uID+N/+9rcprp+z9dZbl0svvbRVh7dfArUWyBRgBWSE0K+88kpq0+uuu6585jOfSVGjACtFG94rQoCVqx9VVCPAEmBVMUed3IcAq5P6jt0rAgKsXum08+wKgfgA/Je//KV8/OMfn+z5xNMId91113L++edXfr7xYfePf/xjGTJkyBT3HVdfPf/885Uf2w4JdINAtgBrv/32K8cff3xa2vCKnznx1MQMmwArQxf+rwYBVq5+VFGNAEuAVcUcdXIfAqxO6jt2rwgIsHql086zawRmnXXW8uqrr071fC6++OJy0EEHVfJ0wjjeEUccUfbaa6+pHnP48OElPuDZCBCYvEC2AOumm24q6623Xtp2RWg+bty4NPUJsNK0olGIACtXP6qoRoAlwKpijjq5DwFWJ/Udu1cEBFi90mnn2VUCzd4muP/++zdu6fvDH/7Q5/Ofb775Gk8ZvPLKK8v0008/zffPPvvs0wzWprkTLyDQxQLZAqygzvzv9uGHHy5LLLFEmokQYKVphQDrQ62I5QMi8I1/z/Gl04wzztj4T2zx90I8pXj8+PHl5Zdfbtw2HE8vzrgJsARYGeeyLzVlD7Di50OsZRt3U0zub/v42fDiiy+WeHhKu59u3hdnr+1tAQFWb/ff2ddUIK7Ail9CzWxvvvlm45fQl7/85fLrX/96mm9ZffXVy2WXXVbmmmuuMtNMM03z9ZNekPmDcNMn4YUEWiiQMcD67//+77Llllu28Kz7t+tmrjTt3577/666BFgRXMR6ieuvv37jg8rcc8/d+Hn+7LPPlueee6489NBD5aqrrmrcnlnnrZevwFp22WXLj370o0aPY4ufLRFixX/iQ2n83/GfSQFWhFgTJ0587z/x30+YMKEcfvjh5cQTT2z89xk2AZYAK8McDqSGjAFW/Pz/3e9+1/h9ED8fBg8e/F7APblzfeutt8obb7zRCLpj2ZJYh/JPf/rTQFi8l0ClAgKsSjntrFmBpZZaqrFW05S+Xb/66qvL2Wef7YqeKYDGL6I111yzWe4PvC4+xLz00ktl0KBBjf8+btGJb2YXX3zxMv/887/3R29fdh6/5OLbnGnd2tiXfXptHoEIOLbZZpvJrn8W83PBBRc0rtSzTV0gY4B1zz33lJVXXjld6zbccMNyzTXXpKorU4AVQUV82P/c5z5XZplllsbTaRdaaKF+eUWQEU+4jQ8of/7znxuhRh0+rPRKgPUP//AP5ZhjjikLLLBAWW211Ur831VvMQO33XZb42+DESNGtOWJxpM7BwGWAKvq2W73/jIEWPG3RizrEb9HY5mASX/vD8QivgyPc4s7Or75zW82Ai4bgU4JCLA6Jd9jx41b0eKHaFwF1JfgJX5gnnzyyY0/rmNhcgHJu4MTYcEmm2ySZoriloS45dDlxmlaMqBCIqxabrnlyj777NO4cqPZLW5PiQ/5Y8aMKZdffnmzb+uZ12UMsAI/rtjJcgXGpGG45JJLSjzVNNPW6QBr1VVXbVxZFR8ell566ZbT/PCHP2wEGa14KMiHi//5z39edtttt5afU9UHOOSQQ8r3v//9qndb4krouOrhwAMPLHPOOWfl+5/WDv/617+WH/zgB40lCNoZZgqwOhdgffWrXy1nnXXWtEaj6f990hWATb+hBS+MgP+KK66obM/NnFMnA6y42nbPPfds/NttptaBwPz0pz8t55xzTrnjjjsGshvvJdAvAQFWv9i8qRmBuEw1viGNhYL78iF4avuOJ2Yde+yxbf2DqplzbfdrRo0aVTbaaKN2H3aKxxNgpWlFvwuJK+jiQ1PcZlrFt3VxVd8GG2zQ+AAc82F79zaf0aNHl1VWWSUVxy9+8Yuy/fbbp6lp5plnThmGdyLAinWN4vdo3PIX//9ObHH72b/+67+2NMwQYJXGLftxJV18AI5/A1m2iy66qHE1R3/W0uzrOQiwBFh9nZmpvb5XAqz4my2+dLzzzjtbHlx92PvMM88s3/72txvrZtkItEtAgNUu6R47TtzeEH/sLLzwwpWfeVzqftppp5W999678n3XZYf3339/45dVls0thFk60b864kqr733ve5UFze+v4oUXXijf/e53y3/8x3/0r7guelfWACvWu/jYxz5W4orXDNt3vvOdcuihh2Yo5QM1tDvACof99tuvJf8u+4Mbv3vjltO11167P2+f6nt6PcCK4Oq6664rH//4xyu3rWKH8bPhf//3f8vQoUNL/Lxo1SbAEmBVOVu9EGDFLcXxRWH87Gj1VVdT6k0sJRFXo8ZFBjYC7RAQYLVDuYeOEVddxXo4n//85yu5imNqdE8//XRjXZ74xqHXtrj3vIqrZKp0s4h7lZrt2ddiiy1W4jLw+COv1dv1119ftttuu/L888+3+lBp9191gHX66adXdtvVOuusU2699dYUdhdeeGH5whe+UEktsWB5VbfbtSvAOuCAAxq3gcS/z4xb/P751a9+VYYNG1bZv+deDbBi7clYcyx+NtZhi2UC4suOo48+uiXlCrAEWFUOVrcHWN/61rcaPz/iCvoM2y9/+cuyyy67pLyCOoOPGqoTEGBVZ9nze1pppZXKT37ykxIfhNq1xa0NI0eObPwA76UtzjvbJsDK1pGp19OpRbI322yzStekqJN61QHWzjvv3HiCWBV/vJ500kmNQCLDVtXPt9jPkUce2VhHqIqt1QHWP//zP5d4KuSSSy5ZRbkt30dclfOlL32pEWYNdOvFAOvrX/96+dnPfjZQuo68//HHHy/rrrtu4wllVW4CLAFWlfPUrQFWrFsZa5bFz81sW6ynGb/D4meEjUCrBARYrZLtsf3G03Hikdxx62Anth//+Mdl//33L1V98OnEOTR7zLiEvx1rUTRbz6TX7bvvvuWEE07o69u8vs0CEaIcdthh5aCDDmrzkf/vcPFErX/7t3/r2PE7deBWBFiLLrpoZYtIx1Wdrbw9qBn3+EIiFqCtYot1m+J3U/YAK+YibhWM9R3ruMWTbePJwgNZ666XAqxY3+ruu++u7MrATs7MFltsUf7nf/6nshIEWAKsyoaplMbV5d22iHv8no6/4bL/DRUh1iOPPFJlO+2LwHsCAizDMGCB+MM1nhLYqfBq0gnEbSfxbXC3h1ixDkXGdTLCPW4hteUWOO+88xr/TjrZq1gzLRYGjjp6aWtFgBVPfqziCpjoQyzEGl8GdHKLRe7jaXsD3eLnUVwVHIvTZw+wLr744sbt8HXe4ql1cetIfz8s9kqAFX8vxUNYFlpooTq3+73a42d5fJiOdQ6r2ARYAqwq5mjSProxwDriiCMaD1XIvsVT4+OK+5tvvjl7qeqroYAAq4ZNy1Typz/96XLjjTemKSkeARyPGI91Grpxi8Uan3nmmVRPKHq/cyxEG4tJ2nIKxC1iseZVhi0++MRaP50OTNpp0YoA6+yzz24svh63FAx0i6cJ7brrrgPdTb/fH0/Zi4C+iiewRbAXjxSPq7myBljxkJO4ZXD55Zfvt1mmN0ZouNdee5W4HbWvWy8EWFtttVU544wz0izK39ceTe318e+sihBLgCXAqnIuuy3Aiit1jzvuuCqJWrqv1157ray22mol1qK0EahSQIBVpWaP7SueWhVPw8u20Gxczh4f1OOWxm7bsgWGH/bdbbfdGn+g2/IJrLHGGuW2225LV1jUdccdd6SrqxUFtSrAitAg1h+sYosr8zp1FWvcjnT55ZdXcRqND9PxofpHP/pRygArbq+If49zzjlnJeebaSfxISueOtqXp1p2e4C15pprNp4yOMsss2RqVaW1xILSJ5988oD2KcASYA1ogD705m4KsDbffPNKb9et0nla+4r1HR977LFpvcz/TqBpAQFW01Re+GGBq666qmy88cYpYeIKrLjNLi5h7ZYt7nuPpz9l3uKDb1wJElfX2PIIxOzEN2HZnlw5SWimmWZKP9tVdLNVAdbKK6/ceBprFY/QjvChU4/Crio4i58/k25pzxhgRYjx3HPPlfgSqFu3ESNGlLjVpdnfBd0cYH3iE58oDz/8cFf3e9IcR5ge4WV/NwGWAKu/szO593VLgPVP//RP5dFHH+3o0g8D6Uss7B6/77J/hhnIOXpvewUEWO317pqjxS0P9957byUfmFqFEiFWLOJ72mmnteoQbd1v3AYTH8ayb/HBpdeeCpm9J5nD5rC74IILyg477JCdccD1tSrAiqumIqyv4uqO22+/vcTVIu3e4jaDqq7Eu/LKK8umm27aOIVsAVaEtRFmLLLIIu0mbvvxvv/975dDDjmkqeN2a4AV/Y4Pnt2y5tW0mhkPgdhggw36ve6NAEuANa0Z68v/3i0B1oMPPlg++clP9uXU0722V/7OSwffpQUJsLq0sa08rViHKdYpqWLNlVbWOWnfscBxPCGvzrcUxh/BEyZMaAfXgI8Rj9Wef/75B7wfO6hGIK5E/POf/5z+m7t55523cVVKN2+tCrDC7Otf/3r52c9+NmC++DkTP+PbvY5g3H5c1SPBI+w/8sgj0wVY8TszbnHfZJNNBtynuuyg2Sv6ujXAuuSSS8rWW29dl3ZVUufvf//7fj9hUYAlwKpkCP//TrohwIq/4fqzrmCVjlXtK8ODYqo6F/vprIAAq7P+tTz6V7/61RKLpddpi9sYPvvZz5Zbb721vP7663UqvVHrTTfdVD71qU/Vpu74xjm+LYpvY22dFYh5Hzx4cGeLaOLoEZzMNttsJS4179atlQFWmFXV65122qmce+65bW3DCy+8UMni1h9+GmqmK7BGjhzZWJerXVtYxJdNsaB9rEcVV+oNGTKkcXt9O7+Aiityrr/++qmedjcGWO1asyZ+z951113llVdeadyyefXVV5f77ruv0fvYYp21eLLnpKsS4wr6Vj/JuL9XcgqwBFhV/nyse4AVT9GNB7XU4W+4ZvoWV4ovuuii5fnnn2/m5V5DYIoCAizD0WeBqtYp6fOBK3pDPFo9bn+sy1anq6/eb7r00kuX+CbW1jmB7bbbrvzyl7/sXAF9PPK6665bbrnllj6+qz4vb3WAFU+0+5d/+ZdKQKpYT6vZQiLsjlskqtjiKZt77733e7vKEmBttNFGZdSoUVWc4lT3EWvdxZc1zTywYb311isXX3xx42mNrd4iNBkzZswUD9ONAdbf/va3Ms8887SMdvz48WW55ZYrf/jDH/p8jLiF9cknn+zz+/ryhv78rSXAelc4fv6++OKLjcC5ii1+Jlx77bVT3VXVX06383fIlE6s7gFWFb3Pto/4MiO+1LARGIiAAGsgej343m9+85tdcSnrPffcU44++uhy/vnnp+5ifGs6evTo1DVOrbj40HbNNdfUtv66Fx63z37+85+vzWnEU7o23HDD2tTb10JbHWAdfPDB5bDDDutrWZN9fTvDxHiCYiz+XMUWH8LOOeec93aVJcCKW9hbtQ7SU089VXbdddfGQv5xFU5ftwiw4ndNfNPfqitzxo4dW5ZZZpkpltZtAdZ5553XsnX9IrD64he/2LjqaiBb/Dxae+21y3HHHVdWX331gexqsu+NOvv6lGoB1ruUAqxqxrHXA6xnn322/Nd//VcjvHz/HRGxZEPcyh63N1cVkvalY/F36WWXXdaXt3gtgQ8ICLAMRJ8EYhG+L33pS316T+YXxx/+p5xySjn99NPLX//611SlxjcUcStA3PZR522LLbao7aN/6+wetdfxasl4Uk27119qV59bHWDFecQtRFV88z3Qp4n1xTRuOV588cX78pYpvnbmmWf+wG3iGQKsuCps2LBhlZzf+3cStwV+97vfbTztr6rtG9/4RuMplOFY9XbCCSc01qOc3PaVr3ylzw8PiLXa4habKuY9aooQra9rTf7mN78p8Z/3b/Hh8IknniizzjprpYTxb/uggw4qxxxzTNNPd2y2gGOPPbbE+jRVb9GfX/ziF03vVoD1LpUAq+mRmeoLey3AigeExFW1l19+eYnbeJvZ4nbyeIhOXCUbv6eqeBjMtI4bn22yPsV+WrX733MICLBy9KE2VdTxA3GzuLFmxLe+9a3G5fixEHmntvjDJS69H+i3q52qf3LHjSuxbrjhBmtitbEp8QSw+HBbt+39C3DXrfZp1duOACueuhofAqvYqgoGplZLfNiv6suD+CLiw+fe6QBrvvnmK/FFSdwKXuXWn6tbmj1+3PYWT3JcZZVVmn1L06+LK3L6c8vb5A4Qt57ef//9ZYYZZmj6+FN7YVyJFmuxDXSLD2bx5Ncqtwiv9t9//0a42KotPsDGradVfoC94oorymabbdZ0yQKsd6kEWE2PzFRf2CsBVnwJtOeee5a4in2gW1wRHVf0Vh3Af7iuFVdcsbFWn41AfwQEWP1R69H3LLvsslNdw6JbWGIh5FhHZJ999mn7QsZh+MADDzSe4FP3K6/ePw8RfMYHg1auB9It81fVedT1lpxY5LqOwVszfWtHgFXV0wjjfNpxC3D8ARsfnKvYllpqqRLfQL9/63SAFesMxXpDVW6xTlxcofvGG29UudsP7CtmNW7/rnqtkvhiZrXVVqvk6tCsAVb0ZdCgQZX2ZpdddmnLw3OGDh1aWcA4CaAvQXiVAVYcvz+31FbauAHsLB5q0he7qR3KGlgDaMT73tpMP+Lnc9ya264tAqe4erLKhybFlfCXXnpp42+AVm3xJcmkB0u06hj2270CAqzu7W3lZxaXfMYvwV7b4laAWPQ9Qpi4FWRaT1Pqr8/w4cPL1772tT6vGdHf43XiffFUpDPPPLPEVTa21grEzK6wwgqtPUgL9v7II4+UJZdcsgV77vwu2xFgVfnQhw8viF61YHzD+/jjj5e4SmmgW1w1G0HRh0OdTgZYsY7YzTffPNBT+8D74zzj33VVV61Nq7h44nCsK1bltuaaazZ9e8vUjpsxwFpjjTWaWkC/L5533313Y42ydl0Bf+SRR5Z///d/70uJU31trMW4zTbbNLW/qgOspg7aAy8SYFXT5GwBVjyII55S3qot1tSMtTVbscUt8N3ydMVW+Njn1AUEWCakaYH4Qzz+ILe9u85MLAQf3yBMut0wrtyKhXon3YLYzDd/cQltfMN9yCGHlNlnn71naOMX1/e+973GwpJ33HFHz5x3O080vo2r6taadtYdx2rmj8R211TF8doRYEWdJ510UokHbgx0i6eotWpR76gtFjWPn5lVbLFo9o477viRXXUywKqqD5NOKq4MjrXC2n2Leyy2u+WWW1bRpvf2EVeXxPkMZMsYYB1wwAGNB8RUtYXRggsuWMaNG1fVLpvaz+9+97s+r0k2pR3HlymxLEIzmwCrGaW+v0aA1Xezyb2jmb9N2nEF1vPPP1+WWGKJSm55npZMfD4ZOXJkS/6ePPXUU0tcNW4j0FcBAVZfxXr09VV/8OpRRqc9BYFY5PWoo45qLN4d/2n14717oRHt+ra+FZZx+2yd65+SSdU/R3feeefGk+M+vMXT3saMGVNJENjKdSpGjRpVyS0KMStTuuW6UwFWBDTNfInRl38/sdB5PFGq3dv/Y+8+oCYryvwB16osQSQIQxIQh6hkAUFAkjgEhZGoJFGCIggqiGQkiQoCYiCDiKOMSxBBQHJOIsjIGACRLDkIDJKEPW+vnzvMfKFDdXfd7qfO8ez/f+i+971P1Xzd/bu3qmLqd/xNzrkmSoSNETq20koMsGIHzOinXC1u8MRTXZ1ua665Zpb1dAbqrueHf7xWgNWenhZg5XGtZxy3O8B66aWXUkz17dRTuCGX++/aQG/EzezYBbFXN+7JM+ocZTABAZZxUZdAPMkRU3tGjx5d1+u9iECzAt36wt5svaW+r8oBUK7FlEvrm04FWPH3+tFHH02xQHqrrZGnJxo5VwRO//rXvxp5y5CvjSc5h5re3q0AK3a3jR39crULL7wwfeITn8h1uIaPE08BPfzwww2/b6g3PPfcc2nWWWdt6XglBlgxpnOuXxk7LT777LMtOTXz5pz/PuP89T5xJ8BqprdGfo8Aa2Sjel5RQoAVu5Duueee9ZSb9TUnnnhiW56Wipk9EfppBBoREGA1otXHr41tVh955JG2TifpY16XPpmAACvPcKhygBVrGeWaWpZHM89ROhVgRbXxVOPmm2/ecuExdSn6I/cUpqgtaszRYsrWUGv2dCvAinWL6p02VY/BGmuska655pp6Xtq218T6j1FHrrbpppvWtnxvtpUWYMW/71heIFeL6YMR/HSr5fobEvXHE6H1bNYgwGpPbwuw8rh2O8AaN25c2mabbfJcTINHibUqH3rooewbVBx11FEppl5rBBoREGA1otXHrxVg9XHnd/jSBVh5wAVYeRxzHqWTAVbUHT+m6/nCPdI1fvCDH6yt+ZezxQLxu+yyS5ZDxtS2mFYxWOtGgBWflzE1Iler98d/rvMNdZwPfehDWRZfHzj++PHj0xZbbNF02aUFWEsuuWT6wx/+0PT1TPnGmC6aczpio4XF+nex8UqOVu+CzQKsHNpTH0OAlce1FZ1tRQAAIABJREFUns/Tdk4hbOeU/nqEYlfCmPqfu9XjmvucjldtAQFWtfuvY9XHlJTYLSr3duAduwAnqoyAACtPV1U5wIofTrGAeK+1TgdYOb9I5/yCmXN60sUXX5zWX3/9IYdKNwKsWJh2hx12yDZ844573Hkvof3xj39MERzlaMOtXVbP8UsLsGKx49icJFfr9pMJsUNYbE6Towmwcig2fwwBVvN2k7+zns/BnJ+7k5/7nnvuqS3c3u0WfxNy7x4YO0/HMjUagXoFBFj1SvX56+IHR0yJiO27NQLtEnj11VdrC/t+7nOfa9cp+ua4VQ6wIjDPORWnlE7vdICVcx2mBRdcsLbDao629957pwiWcrTPfOYztQVmh2rdCLBirahYMypXm2WWWbJP4Wy2tp133jn96Ec/avbtU71vyy23TGeeeWZTxystwJp33nmz7ib8zDPPZHsCqhlgAVYzamW+R4CVp1+6GWBNO+20Kb4jd7tFiHbXXXdlLSOC/0MOOSTrMR2stwUEWL3dv1mvrl13FbIW2YWDxQKr119/fS3ge+qpp95Swcsvv5xiu9vYjSp22Zh8WklMN4gv4LvvvnsXqi7jlDGNaMKECSmeoog11rR8Armmj+WrqP4j1fMlsf6jlfPKTgdY73rXu9Lzzz+fBWCkoKiRk5x33nlp7NixjbxlyNeOtOB/pwOsueeeO8Wd8lw79sVi/PPMM08WqxwHiY1c4mnsXC1+CC222GJNHa60AKupiyj4TTkDrFjcPv5tjPRkrSmE7RkQAqw8rvV8N2nHb6X4jfGRj3wkz0W0eJS4wRh/t+OmVq7W7adNc12H43ROQIDVOevKn+m6665LsVtEP7a463HTTTeluCMaIdXpp59e+//neMolPgy+//3vp/XWW6+2NW6vt8ceeyzFYsDxlFWu6Qm9btbM9cUP37nmmquZt3b1PbFYeDxx0out0wFWGMYOfWuttVbLnBMnTkwRuudo8fd0mmmmaflQv/vd79IKK6ww7HE6HWC9//3vT3/6059avraBA4wZMyZddtll2Y6X40A5PvcG6og1luKHUCxY3mgTYDUq1tjrY8mI+++/v7E3DfHqCLDmn3/+9Pe//33Y4wmwsnBPdRABVh7XbgVY2267bTrjjDPyXESGo1x00UW13yy5WjzdnTMQy1WX45QrIMAqt2+Kq+zLX/5y+t73vldcXe0oKH5gRbgSHxhf+tKX2nGKQY8Z0zOOPfbYFIsA91qLHz0/+MEPUowjrf0Cp556atpuu+3af6LMZ4i/MV/96lczH7WMw3UjwIqg+LTTTssCMNLTTvWcJHaeO+uss+p56YiviSeTIqgdrnU6wPrEJz6RLrjgghFrr/cF8803X4opiSW16L/ox1yt2V1HBVi5emDw4+QMKgVY7e2rkY4uwBpJqL7/3o0Aq9W1Auu7ssZelXujkjh7PbaNVenVvSwgwOrl3s18bXHHvIT515kv6y2Hizvd+++/f+1HUWwX240Wd/AvvPDCnnoaK6YxxQ+7eIpP64zA8ccfn3baaafOnCzjWWIh5IMPPjjjEcs5VDcCrJlnnjk999xzWRBiTEXI3kqLqcI5psTF3+dYiyOmaQ/XOh1gxfTBhRZaqBWi/7w3pp/HXel4KrGkFrtS3nbbbdlKanZnLQFWti6Y6kArrrhiuvnmm7OdQICVjbKpAwmwmmKb6k31hCy5pxB2ezfSoeRi59/pp58+D2xKKb6r5FryIFtRDlSsgACr2K4ps7D40hpfXnupRahy9tln16bxldLiQ/Lqq69Oq622WiklNV1HrA0W26/HF1itcwKxiHRpT27Uc/URSkQI0IutGwFWOMZUu+WWW65l0tiBbokllmj6OPGkTew0lGMHo0suuSStu+66I9bS6QAr51Mrsc5I3NDIecwRwep4Qe5FfJvdeVaAVUdnNfGS+Lz+yU9+0vTaZIOdUoDVREdkfIsAKw9mNwKsUhc4z/2U/9Zbb50irNMI1CMgwKpHyWv+I3DAAQf0xE4RsaB6BFcxvWakNRm62f233nprWn755btZQkvnbvUHb0sn9+baWjzxA7gqLdZb6eV14LoVYOVcy2bWWWdt+omuCJxiw4YcbcYZZ6xr3aROBlixnuHrr7+e4/Jqx4h1oUp8anWGGWbIfnOlnh+GU8IKsLINtTTHHHPU1rj76Ec/mvbZZ598B/73kQRY2UkbOqAAqyGuIV9cz9+p3E9g7bbbbrXlN0pr8bR8hGu5WkkL1ee6Jsdpn4AAq322PXnk2FnpxRdfrPS1XXvttWn11VevzDWUdve9Ebh6PuwbOZ7XNiaw1VZbpXHjxjX2pi6+OjaJiC9/vdq6FWDFboSxc9yoUaNapm1lsdVcf8vuuOOOtOyyy9Z1LZ0MsHIv4F7XBfbIi5r5rBBg1d/5EU7Fk1UxNXDllVdOiy++eP1vzvBKAVYGxBYOIcBqAW+yt9bzdyp3gFXq1Lpdd90168wVAVaeMdovRxFg9UtPZ7zOb3/722mvvfbKeMTOHOrBBx9MG2+8cda1OzpRedzVjyeZFl100U6cLss54smBhRdeeMQFlrOczEGGFMi5/lG7mWN9vQhYenkNhG4FWNF3MZW33tBnuL5+8skna0/JNbprXExhjKmMOVpM9653M4hOBlif/OQn0y9/+cscl9h3x4jPt5he2kjrlwAr/i6utNJKaemll05xzVMG0TElN/7WzzTTTLUdXOP//ba3va0Ryra/VoDVduJhTyDAyuPfjQCrnnPmubrGjhLfA+KGVq4mwMol2R/HEWD1Rz9nvcpYoPYvf/lLimClCi1+EMcjuLGmQ1Xbpz71qTR+/PjKlB+7yPXLjpWld0rsolni4+dTuvXDmOlmgDXXXHNlC5SbCRu+8pWvpGOOOSbLP5cFFlggPfDAA3Udq5MBVlX+rdUF1+EXxSYfsXlJI63XAqxYX3SdddZJ0047bdpkk01aWm+uEcdOvFaA1Qnloc8hwMrjX0+YlPsJrHrOmefqGj9Krqeq48yxacSHP/zhxovwjr4UEGD1Zbe3ftGxgO6YMWNaP1Cbj/D73/8+rbnmmsXt4tTMZR999NEpfuSX3u6888601FJLlV5m39QXP4YicI4f/aW2WKur01NaumHRzQArrvevf/1rbVe7Vtv555+fxo4d29Bh4k5tjvXNIrhqZCwLsBrqpq69ePvtt0+nnXZaQ+eveoAVfw9iat/HPvax9J3vfKcyNwUb6qR/v7gbAVac85vf/GYz5Xb9PTE29txzzzTddNNlqUWAlYUx1RMm5Qyw4sn0+A5XassZYMXSABHi5zxmqW7qal1AgNW6Yd8eIaa1xRfIUtthhx2WDjzwwJ75Yxjr2FRhetUGG2yQfv3rX5c6LPqyrtLXroungx5//PGe75tuB1gnnHBC+sIXvpDFOaYtvfbaa3UdK7baji23c7SYBt7IND0BVg719h+j3wKseJI9dnWOzQhKm+7Xjt7uRoBV+o//4Zzjs+LZZ5+tTQfN0QRYORRTxwOsZm4W5bnS+o6SM2yaOHFibZr0G2+8Ud/JvaqvBQRYfd39rV18LAYaj3yW2FZYYYVs662UdH2HH354W3YIynWN8YRHrH2llSdw/PHHp5122qm4wuLJwj322KO4utpRULcDrNGjR9cWc8/RPvvZz9Y9LTu2xt5yyy1znDbNN9986eGHH677WAKsuqm6+sJ+CbDie1N8jq+11lpd9e70yQVYjYkLsBrzGurVOXe+jXN0+gms/fbbr/b3otQWO7rnekrwoYceSvEdJedOvqW6qat1AQFW64Z9fYRNN900nXXWWcUYxB++ZZZZprboeS+2WIQ5FkIu9Y5tLGL8q1/9qhfpe+KaLrjgghRrzZTSzj777LTZZpuVUk7b6+h2gBUXeP/996f3vve9LV9rI30X04qXWGKJls/ZzA6IAqyW2TtygH4IsEq/AdXOjhZgNaYrwGrMq1cDrK233jrFDaBSWzwlGBtH5GhPPPFEes973iPAyoHZB8cQYPVBJ7f7Evfff/90yCGH1HVnop21/OMf/0hzzDFHisfGe7VFcBXTCGNKWIktPsiiH7QyBWL8xHpYJTwlF+vTxbbu/XS3rYQAK+dNh1ibY6S/t3F3Nu7S5mjvfve7a9NqGmkCrEa0uvfaXg6wYgrtPffcU/tx1q9NgNVYzwuwGvPq1QArPq/POeecPBhtOMpjjz2W5pxzzixHFmBlYeybgwiw+qar23ehsRvh3nvvnWLNqW61p556Ki222GLp6aef7lYJHTtvPGY777zzdux89Z4o5sKX+mRYvdfQD6+LPrr11ltri2V2q1166aW1J8HqXUOpW3XmPm8JAVb8nfzzn/+c5dJiTa0vfvGLwx4rnhhdbrnlWj5ffFGOJ8dGCsymPJEAq2X6jhygVwOsWLsyptbHzbV+bgKsxnpfgNWYV68GWFtttVX6+c9/ngejDUcRYLUB1SHrEhBg1cXkRfUIbLjhhl2ZPhZT1nbbbbf04IMP1lNm5V8z00wzFfmU0y677JKOO+64yvv2ywWce+65aaONNur45cZOY7GQeD89eTWAXEKAFbW88MILtcWjW21XXXXVsGv5xJOiTz75ZIonUFptzW6xLcBqVb4z7+/FACtu7sW4XX755TuDWPBZBFiNdY4AqzGvXg2wtt1223TGGWfkwWjDUWJGSIT0OVps5BM35/vxu2EOv347hgCr33q8zde76qqrplgsOsd6JyOVGl+IfvrTn6btttuuZ3YaHOmaB/57zp0/6j3nSK+LD7EXX3xxpJf57wUJ7LXXXil+4NezMGmrZU+aNCkdccQRtenG/dpKCbDi6bvYAS1HG27s5NzoIz5TmlnbUICVo5fbf4xeDLCuv/76tMoqq7QfrwJnEGA11kkCrMa8ejXA+uEPf5h23XXXPBhtOErO3yKxwcyiiy6a4m+FRmAkAQHWSEL+e1MCF110UVpjjTWy3HkfrIBnnnmm9sUw1vPpx5bzQyOXnwArl2Tnj3P77bfXNj9oR5AVY3XChAkpNiDo91ZKgBX/Vh955JEsd05j6vgBBxwwaNeeeOKJ6fOf/3zL3R7rXsX6V800AVYzap1/T68FWBtvvHHRa9d0uocFWI2JC7Aa8+rVAKv0nb1z/haZOHFiWnrppdMbb7yRp/MdpacFBFg93b3dvbhYsDQWeN9pp52yFRJr5sTaOTfeeGNfP+0TC6XHVMJSWnyIRT2ewCqlRxqv4wMf+EC64YYbsu0oExXE4t3xFE58Mcn5RafxqyvjHaUEWKERoWWOUPG5555Ls80226BfOnP1eTy5F08LNtOqHGDF+mExraIf2rHHHpsuu+yyhi41/mb94Q9/SDFVL0eLcRw3x1ptsRV8rDP33//9360eqmfeL8BqrCsFWI159WqAFdfVjhuLeXRT1u918VT4CiuskPWYua7TccoTEGCV1yc9V1HsTLflllumnXfeOS2++OJNXd8pp5ySrr766qK3k23qwpp8U9yVWXDBBZt8d/63CbDym3briB/72MfShz/84bTHHns0FZJGiHnUUUela6+9Nl155ZXduowiz1tSgLXaaqula665pmWnuFsad00jpJy8xdTuU089teXjxwHiS22EOc20TgZYn/vc51Ks8ZarHX744Wm//fbLdbieO06pAVZsex/feUpqMYX773//e4pNYP72t7/V/jfYDaeXXnopxW5gEZzGpjjxXSNHE2A1pijAasxrqFevu+666eKLL85zsDrDpLgRuPLKK3f0nNlO1uCBct2kitPGgwmmXDfYAX38cgFWH3d+Ny49tl2P+dzxRyp2Q5t77rlr/4ut1uOHUEwViV0t4v/G0xvxY+Dyyy/vRqlFn7OVRZgffvjh2t3h+EI70KaZZppaILbIIos0vZOgKYRFD5mmios+jScjZp111hT/duebb77aE1ozzDBDevnll1M8fXP//ffXdoaLxbp33313T+ENI11SgBVlxt/Z6M9W29e//vV05JFHvuUwsXZHbOzQaosf0nPNNVfTh+lkgBVrQF533XVN1zrlG+OOtAXAh+YsMcCKv5Gd2FAmdpKNacDxA/Luu++ufaZHKBX/71xP7cUTZK+88kqW8SzAaoxRgNWYVy8HWO94xzuKXBcqbnbGjtK5WqwZ+JGPfCTX4RynxwUEWD3ewS6vNwUauesR0y4jDNx0003rmqIRu4DEh9L73ve+WrBYbxNg1Svldf0qUFqAFVPz9txzzyzdETckJv+71MjfqOEKiC/JrdzE6GSAFUFvjiloAx6xxuP73//+LP3TiwcpMcCKf0/x76odLZ6OirD4Rz/6UTsOP9UxBVgdYR70JAKsPPa98ARW3FyOcLq0Fk8HxxqYuZoAK5dkfxxHgNUf/ewqe0yg3h+HMQ3svPPOa+rDL36MLbbYYrWpYHEHaKQmwBpJyH/vd4HSAqz1118/XXjhhVm6ZZtttknjxo2rHSvWPYzdaFtt8XcudiW65557mj5UJwOsKLLev831XFD8aInrt6344FolBljx9FU8hZW7xfTU8ePH15587VQTYHVKeurzCLDy2MdU3pjSm6vVsx5V7imEERTFdPLS2kEHHZS+8Y1vZCvrxz/+cW1XeY1APQICrHqUvIZAQQIzzjhjiimEw7Vzzjkn7bPPPi398Bs4fnyJjelBu+2227Dn/M53vpP23nvvgqSUQqAsgdICrNCJpzMbedJyKNFY9+xrX/ta7T/H2lqxxlarLYKbmN7cSut0gBVTrnIt3h19s8ACC9TWJNKmFigtwJp++ulTPCWVs8WSCjGNNKYLdroJsDot/v/nE2DlsY/dTWMN3VytGwHWoYcemg488MBcl5DtOFdddVVtt/lcLdbSjE05NAL1CAiw6lHyGgKFCMQ0neeffz69853vHLSi+PEUd2rPPPPM7BXHLoNxd3nmmWce8tijRo1KTz31VPZzOyCBXhAoMcDaYYcd0sknn5yFN64v/kbFLqkRtLfaYq3EWNi1ldbpAOuYY45JX/nKV1op+S3vjad5Yt1CbWqB0gKseOL5u9/9brauis/zCDAjxOpGi7XnHn300SyntgZWY4y9EGDFzYduPz36xS9+MR133HGN4Q/z6m4EWBHqRLhTWsv5tHFcWz22pRmop3sCAqzu2TszgYYFYne4oX7QxYdJbCee+0Nl8iLjAyYW647txgdr8bh2O8KzhqG8gUCBAiUGWLFbUkx5yNFinb077rgjy85lMVUqnmhptXU6wIo1q/70pz+1WvZ/3h/TNA4++OBsx+ulA5UWYF100UVpvfXWy0Z89NFH13aD7Vbbf//9Uzz9kaMJsBpT7IUAK26mnn766Y1deOZX90KAVWK4s8EGG6Tzzz8/a28JsLJy9vzBBFg938UusJcEYk2UWFx9sLb44otn/eE0lNt73vOedPvtt6c55phj0Jd4DLiXRpxrySlQYoAVNcUOsDnaZZddllZaaaUU6+G12q644oq09tprt3qY1OkAa6GFFkqx+HrcTMjRom9yHStHPSUdo7QAK8Z/jjE7YByftX//+9+7Rp7zZpgAq7Fu7IUAK8ZujOFutlg/Mf4m52r1hCy518CK2k844YQUYVwpLdcyAQPXE2v1brTRRqVcnjoqICDAqkAnKZFACMT6MlNuVT8gs/vuu6eYutKpFmHZxIkTBz1dfLDlnBffqWtyHgLtFigxwIpr3nHHHdNJJ53U8uXHU1M51tOKQsaOHZvlDm+nA6y4/gceeGDIgL8Z5Hjy9uabb27mrdnfE1NEYye8nO2CCy5If/zjHxs+ZGkBVjx9mGuqz7PPPpve/e53N2yS6w2xTMGLL76Y63BJgNUYpQCrMa/BXh1/q2Lc5WzdCrAmTJiQll122bbOsKjXKaaGxlIhsaxIrnbIIYdkXRA+V12OU66AAKvcvlEZgf8IDLdwe46Fjpuhvu2229IHP/jBQd+6xBJLNPWDpJk6vIdAVQRKDbBil9FJkyZlW3y81f6IH845nuKKOjodYMU5//znP9d2cM3VYhpZTCcroa244orZw7T3vve9tfUVG22lBVhPP/10ttDpm9/8ZoopfN1qMRUypkTmagKsxiS7EWB9+tOfzroExGuvvVb7OxgzB7rRYlfcrbbaKuupuxVgxUVEoB3BdrdbPCl17rnnZi0j1o089thjsx7TwXpbQIDV2/3r6npE4De/+U1aZ511Br2ahRdeOMuaM41SxQd5fEEZbHpLPDoedeXekanRGr2eQEkCpQZYYZR7SkAr7vHDPX7A52jdCLDmnXfe9NBDD+Uov3aMbt2kGOwCdtppp3T88cdnu7aYphYBVjNepQVYOafcffzjH88aIDXaYb/4xS/S5ptv3ujbhny9AKsxym4EWLFhRDNB8nBXtuSSSw75tH5jIo2/OnbunGeeeRp/4zDv6GaAFTeZcmyO0gpIzp1JJ69j2mmnTa+++morpXlvnwkIsPqsw11u9QTirkssnB6PQ0/Z7rvvvrTooovWgqRutNNOO6226+Fg7de//nWKhR41AgT+T6DkACumIR911FFFdNWYMWNSrCeUo3UjwIq6YyfGnFMs4jr23XffHCQtHSN2xIofpbla7LAYNzti+mmjTYDVqFh9r4/vFLGOW84mwGpMsxsBVlSYM4SN4/3zn/9MM8wwQ2MXn+HV8VkWn2m5WzcDrLiWbk8nj8+gXDeXBvomnlydffbZc3eV4/W4gACrxzvY5VVbIBZKf/zxx4e8iG5/mEVh8bTV3HPPPWiNFnSv9vhTfV6BkgOsuNIIwmM6YTdb/NDNWUO3Aqyf//znaYsttshGGTcx5pprrmwL7jdTWDumD0ZQEjs3NtNicebY8THWZMnRYgOCW265pelD5fzxH0+6nXjiiU3X0sobzznnnLTxxhu3coip3ivAaoyzVwKsuOrNNtssnX322Y0BtPDqOeecM8XN3Ry72E5ZRrcDrCeeeCLNP//86ZVXXmlBqLm3rrDCCum3v/1tc28e5l0bbrhhinUQNQKNCAiwGtHyWgIdFhhuC+B4xD/WLOh223XXXdP3v//9QcuItWxmmWWW7AtpdvuanZ9AMwKlB1gxNSx+OHez5d56vVsBVkwBi6dQc7aY3rPgggvWphR2o1166aXpYx/7WNZTR8g3fvz4po4Z04PuvffebBsHxI5liyyySFO1xJtyBlj333//kDsON11gHW+Mp9qaWVB/pEMLsEYSeut/71aAFf002NP+jVX/1lfH05XxNGonZgrE5gOPPvpotjUUp7zubgdYUU/MfNh+++1b6ZKG3xtj4qabbkof+tCHGn7vcG+Iv5nLL798bWdzjUAjAgKsRrS8lkAHBbbeeuv005/+dMgzvu9970vxJbfbLe5+Dzd3PRZmjAUaNQL9LlB6gJV7faNG+/uNN95IyyyzTLrzzjsbfeuQr+9WgBUFxd3yUaNGZbuW+LIfAdIVV1yR7Zj1HmiTTTZpy1MU9fwgHKrG+FEc69zkXBcmPs+aDQhzTxttxabefp38de3wHDi+AKuxHulWgLXddtulU089tbFi63j1T37yk/TZz362jle29pJ40iv+VrWr1fNv8oYbbkgrr7xyu0qoHffQQw9NBx54YFvPMfnBY0r/2muvnf188dshdu7NGf5nL9IBixQQYBXZLYoiMPxOVt24AzNcn3zyk59Mv/zlLwd9Sfwojbu6d911l24l0NcCpQdYsSFDsz/ec3RsBACx5l/8zcjVuhlgfeYzn0nxwy13W3fdddMll1yS+7BDHi+e+oqperGAb8521llntbRQeIzX2M49nvLN1Vp5AvD3v/99LYDN1Q444IB02GGH5TrcsMeJJ1euvfbaIXcWbrUIAVZjgt0KsN7znvekWJeuHS2mxLbzCd/zzjsvjR07th2l/+eYpQRYMYXwy1/+ckemGZ955pltm+0RN2Quv/zytvaZg/emgACrN/vVVVVYIB7Vvfnmm1PMNx+qtbpWR26euAMeTxsMtebAM888U5sO8fzzz+c+teMRqIxA6QFWQP7oRz9KO++8c1dMY8r0CSeckPXc3QywIvCJadS51miaHGb99ddPF198cVarwQ621FJLpQkTJrTlPK2ERQMFxWfLrLPOmrW+ZteWzP2UQixuHNMk2707V4RXp5xyStt+pEbnCLAaG6LdCrBi3dWYqhy7wrWjxeLq8b+Y5perxS6mMe01xnG7WykB1sB1tvNJrLiZFAu2tyt0jN8MsV6ZRqAZAQFWM2reQ6CNAiP9YHjuueeyf2HPcTnbbrttOv3004c81G233VabP5/z6YocdTsGgU4JVCHAasdC3fX4xpNf7Qh6uhlgxXXHAuXx46qeHz71OE3+mlizLKZntyvgiN0g2/Wk10svvZTlB+dwm4g06jn56/fbb7903HHHpfi8rbdddNFFab311qv35XW9Lp58i10f2/W5GU+v/eY3v0nx776dTYDVmG63AqyoMsZcsxsr1HuVsfNorF/XytSxCKy++tWv1qbTdarV83e8E1MIJ7/eCy+8sDY9M55GzdHiGiPIjDUB3/Wud+U45KDH+J//+Z/0qU99qm3Hd+DeFhBg9Xb/urqKCay++urp6quvHrbqeMQ7vrSX2OKOcdy1Gapts802ady4cSWWriYCbReoQoAVIVJM5WvHDk7DAceC5xtssEH2Puh2gBU7KsZOezENrx0t1kGMjTRyLhgfd8Vjna34EZt7QecBg/jBlWN6ZQRGERy1o8W/g1hjK8KX+L+Dtfg8+9nPflb7T/H5dsYZZ2QvJabfL7bYYtmPu8ACC6Q77rgjzTzzzNmPPeUBBViNEXczwPrd736XlltuucYKbuLV8XfxBz/4QS0obqTF1OGYfhxPSsbOrJ1sJQZYcf2xUP75559fe4qylVAwPK+66qoUO7zm3A14sD6aYYYZ0j//+c9Odp9z9ZCAAKuHOtMejgVRAAAgAElEQVSlVFsgHtmOnThivaihWnzgL7HEEsXu6hd3VGLL5OFaLE4/8IW/2j2megKNCVQhwIorimAh1m/qZPvSl75Um76Yu3U7wIrrWXbZZdu+y1JM87vmmmtqC/tG8NJoi6Bql112SWussUbaeOONG317w6+PGx3PPvtsw+8b7A2t/GBrtYCDDjooHXzwwbXDtHMNuVhW4PDDD8+y3fzcc8+djjnmmI4+/SDAamykdTPAiko7/W/qyiuvrD2pGue97777aqF/hBsxDXvRRRdN8cRWtFVXXbVt67TV00OlBlgDtceTmvH9OtYxi78XMYV9pBa2MX1/6aWXTmuttdZIL8/y37/97W+nffbZJ8uxHKQ/BQRY/dnvrrpAgXiMf5111hm2sk4u6toMUfwIii+qw7X4YI07+/V8sDZTg/cQKFWgKgFW+LVjO/Wh+qVd0wfjfCUEWFFHfGHfa6+9OjI0YyrJd7/73dqPwGgxxTDWioofhHHXO6aNDaxxE3fcIzyMGyOdaPEDNXazih+sudqf//zntjyhVE99kwdY8frYaj7WqGxX+8UvfpFiE5fwa2TDhQjXVlllldoulvvvv3+7yhvyuAKsxsi7HWDdeuutafnll2+s6D54dekB1mBdEH/7Y73EeIo0vnfHE5cRCkZYFZ8H3Wg5b2B0o37n7L6AAKv7faCCPheID8SJEycO++TVwI+Qdi2smbMLYtHHfffdd9hDvvDCC7V1vEYKu3LW5VgEui1QpQDr+uuvr/3g7USLkGmkvxnN1lFKgBX1T5o0qWs/GJr1y/2++GEcayHmbOPHj+/o00ST1z5lgBVr8hx99NE5L2/IY8VUr0022aQWTkaLcDD+F39nBn5ox+ds7M72wQ9+sCM1DXUSAVZj/N0OsCIA32OPPRorug9e3ekAK246dHo6f7u7cbXVVkvXXXddu0/j+D0uIMDq8Q52eeULxBfgeLJqpLVGjjzyyPT1r3+9+Auqdx2QO++8M8WC9RqBfhGoUoAVW55//vOf70jXbLHFFilCiHa0kgKsWHMopsf0a4twJXYMe+ihh7ISxE59Q61RlfVEgxxsygArduSNGzTdaDF9KJ62i3Xs4omrkpoAq7He6HaAFdXGeKonsGnsyqr96no8ci7ivummm6Zjjz02xdq3vdBiU4yYwhxrdmkEWhEQYLWi570EWhTYfPPNU0wJqKfFtIRbbrmlnpd29TXxAV/vjkmxWGSn5tx3FcXJCaRU+zEQT6DkWiA3dv5sx6LR0Vmx9sgrr7zSkX6Lc7322mttOVdJAVZc4EYbbZRircB2L5DbFswWDxrrqv30pz9t8SiDvz0Wsf/4xz/elmMPd9ApA6x4bTy5Ek+wVLnFZ3jsTBh/r3I0AVZjiiUEWPG36txzz22s8MJeHRseRcCdq3UjwIpAvF27weZyqec48X1ivvnmS08++WQ9L/caAsMKCLAMEAJdElh//fVTbH9bT4vd/WafffZ6XlrEa+KHSr07TMWaISuvvHIRdSuCQDsFqhRghcPll1+ePvrRj7aTpLY2VDsXcy0twArM733ve+nLX/5yW11LO3i7t0xv526Ew1kOFmDF+i4PPPBAiqexqtpiQ4Xdd989W4gtwGpsJJQQYEXFMT01pqFWsd1zzz1pt912q63/lKt1I8A655xzUj1r5Oa6xnYdJza7iL+XGoEcAgKsHIqOQaBBgXgCI+5s1vNhGIeOp5TiaaWqtFik/U9/+lPd5cYdpplmmqnu13shgSoKVC3AipAlwpZ2tlhM9u67727bKUoMsOJi61krsG0oHT5wTBeJxYLbvbPZz3/+8xTTUTvZBguw4vzzzz9/LcSqYouNVuJJiZxPYQqwGhsJpQRY8b2smV1NG7va9rw6vjfHurG9EGDFEiPxdzSmB1exRSAem4VoBHIJCLBySToOgToFYl2Z+GNe7xSS+NK/+OKLp9hpqSotPmzjS3DMda+3xYK0K6ywQr0v9zoClROoWoAVT5LE05/tao8++mhtTaR2TR+MuksNsKK2r33taynWNuzldscdd9QWEG93eBWGEZLFGmNzzDFHx0iHCrCigMsuu6y242LVWqzVFuGbAKt7PVdKgJX7b2inRGNzg5j+uO666/ZEgBVuEYrHzrJVW9Q91r1aeOGFU+yOqxHIJSDAyiXpOATqEDjmmGPSV77ylTpe+f8viTuX9YZdDR24zS8+6aST0o477tjQWeIps9jm2+6EDbF5cUUEqhZgBWvsFrTqqqu2Rfj4449PO++8c1uOPXDQkgOsqHHPPfesbeLxrne9q60O3Th4BDhjxozp6KnnmmuuFDdDOrXo8XABViykHv9+PvzhD3fUoNmTxY5nCy20UIp1g6IJsJqVbP19JQVYcTWd3JW2Vb34mzqwBl0vBVjhEpskxfIc9c7eaNWy1fdHeLXgggv+Z6fUVo/n/QQGBARYxgKBDgjEF9kIZz7ykY80fLZTTz017bDDDg2/r9tvaGQx98lr/dvf/lYLseL/agR6SaCKAVY8/Tlx4sTs3RCLRHdip7TSA6yAjSdeIuiYd955szt344DRt/G51aldLKe8xpg6FJujdGLdyOECrKhrkUUWSTfffHPx6wg9++yzafTo0Sl+cA40AVY3/vX83zlLC7Ciprvuuqs2nktuU/577LUAK+y33nrrtm2GkbNvY7H2Tj4Nm7N2xypfQIBVfh+psOIC8SU61oMaNWpUU1dSlTstg11cPDI822yzNXzdsRX4Jz/5yayPfjdchDcQyCxQxQArngx68MEH0yyzzJJVI3aN22CDDbIec7CDVSHAirpjrZZf/epXaZ111mm7STtPEE/Pxt/8559/viPTBoe6lngSK6aotruNFGDF+WOabITAJS/qHrVNmjTpLVwCrHaPnqGPX2KAFTMB2jndu1XtXXfdtbY8x+TTlXsxwAqnuBl+7bXXtkrWtvfH05zxORD/VyPQDgEBVjtUHZPAvwW23HLL2p3o6aabrimTeJS/U1MhmipwhDfFlulxt6jZduyxxzY85bLZc3kfgXYLVDHACpPbbrutto5RznbIIYekb3zjGzkPOeixqhJgRfExPiLUi6mVObd+bzvyv09w4oknpsMPP7wWeJbQ4nP37LPPTh//+MfbVk49AVacPJ5cOeuss9JSSy3VtlqaOXCsdbXGGmuk+++/f6q3C7CaEc3znhIDrIErmzBhQnHjePPNN6/9W59yrb1eDbCiL2In89jd9Z3vfGeeQZfpKDHFMaZxxhNYGoF2CQiw2iXruH0tEB8oEd5stNFGLTlceumllb4j/8Mf/jDtsssuLRk89thj6dOf/nS65pprWjqONxPotkBVA6x4CiueqMnZ4omjeNKy3a1KAdbkFt/5zndS7AIZTqW3iy66KO27774pftiW2GJnwv3226+2GUruVm+AFeeNQCiesosf1d1uMc0z1gk68MAD0yuvvDJoOQKs7vVSyQFWqMQ43nDDDbsH9O8zP/TQQ+mwww5LsebqYK2XA6y43iWWWCIdd9xxTS1PkrvzYpfE2F03/teJTTty1+941RIQYFWrv1RbuEDsgjR27NgU23nnaLGLSuymUtWW85Hz+LId/3v88ceryqHuPheoaoAV3fbXv/61thhrjhZ3jT/1qU/lONSIx6hqgBUXFuMlfijGIuCdWM9pRMzJXvD666/XdvyLz6c777yzkbd27bV77bVXbSv3nGuNNRJgDVz4dtttl77//e937cmJ2CF44403TrfeeuuwfSHA6tpQLXINrCk1Vl555XT55Zd3ZVe8CEjiqcHYdCDC2KFarwdYA9c9fvz42t/ibm34FE/drrjiiiluOGsEOiEgwOqEsnP0hcCHPvShdMEFF2RdtDC+aD/yyCOV9st5JybW6Igfv/EDQCNQNYEqB1jjxo1LW221VRby2EkpjteJVuUAa8Bnpplmqk3ZiadQ3/a2t3WCbdhzxFM7MTU+1pjK+fe9ExcW0wpjYeEzzzwzxQ/wVlszAVacM9bE/N73vpdimYFOtVifLKYC33333SmelhipCbBGEmrffy/9CayBKx/4txQbJ3SqxdiNKbnx9yeC9OFavwRYYRDTzmPWRjueNB3KONZEe//735/iSbhOPFHdqTHmPOULCLDK7yMVFi6w44471r6ExjoSuVuVF3AfsIg7M/PNN19WmphbH0FWTLGJL+UagSoIVDnAWnjhhWs/fHO0CGReeOGFHIca8Ri9EGBNfpFLLrlkWn755WvTqseMGTPi9ed4we9+97t0wgkn1J64uvLKK3McsphjxDSoWGw4fvRtttlmaf7552+otmYDrIGTxBSg9dZbL8U4bdeunLF7XEyzajQ0FmA1NBSyvrgqAdbARa+++uq1dY/aud5cfNf7whe+kE477bS6g/N+CrAG+iLWxoop3ausskrWMTn5wWJ93r333rs228R38LYxO/AwAgIsw4NAEwLxAyLuiMcd1Fgfph0t7mzEF8iqt5133rm2M0y7WkwrvOWWW2pPvw21lke7zu24BAgQ6KZAPPn72c9+tvY5FDvvLb300k3teBufN7Ggd0wHjCdd43+xhmHsnqd1RiDCsPheEQv5tzoV6MYbb0x/+ctfamtcVf0p7s7oO0sOgdhxM8LSeCIr10YUV1xxRbrqqqtqaytp9QvEjePYLCU+Iz7wgQ/U/8YhXnnvvfem+LsS641df/31LR/PAQi0IiDAakXPe/tGIIKkd7/73SmmvhxxxBEdue7rrrsurbbaah05VztPsu2226bTTz+9naf4z7GvvvrqFAv2xo+vTj3h0ZELcxICBAg0KTB69OjaU0azzDJLeuKJJ9IzzzxTm/KhlS1w6KGHph122OE/RU4zzTRvuakVoePk03bi8y8+b03lKbtf+6W66aefPsU6rssss0xtM4oI2UcKZuNpnn/84x+1Ka5HHnlk7SaxlkcgbnTEk1kD/RBr9sZvm8mnpceUzPhffIeOvnjxxRdrv3lOPvnkPEU4CoFMAgKsTJAO05sC8WEbi+jG3Yu4s9TJKX3xQRPTCqreOhlgDVg99dRTtcXeY82eUnfGqnq/qp8AAQIEOicQgUD86Bxo8SM/fmhqBEoXmHHGGdPcc8894qyCCF9jbasITrT2CcRagHFTPv6mTB4qhv8///nP9PTTT6cIyDUCpQoIsErtGXV1VWDVVVdNu+22W21NjG612DGpU097tfMauxFgTX49sf5H3D066qij2nmZjk2AAAECBAgQIECAAAECbRQQYLUR16GrJxBPWsU6FN0MrgbUeiXAWnPNNYtY+DfWA9lll12KqKV6/zJUTIAAAQIECBAgQIAAge4KCLC66+/shQjE1MDY1jqmnZXSeiXAisfGY8eSUlqsKxILW460/XIp9aqDAAECBAgQIECAAAECBFISYBkFBFKqTS/bfffdi7L42te+1hPT3mJr8NLConvuuSctuuiidW/FXNTAUAwBAgQIECBAgAABAgT6UECA1Yed7pLfKnDeeeelsWPHFseyxx57pKOPPrq4uhotKHY4id1MSmuxXXxsOf/mm2+WVpp6CBAgQIAAAQIECBAgQGAKAQGWIdG3AvFk0EUXXZTGjBlTpEGvBFglPoE10OGx08r888+fXnrppSLHgKIIECBAgAABAgQIECBA4P8EBFhGQt8KbLLJJunss88u9vp7ZQ2seeaZJz3yyCPFOsfTYZNvI1xsoQojQIAAAQIECBAgQIBAHwsIsPq48/v50ldfffV09dVXF03QKwHWyiuvnG644Yairffdd9/0rW99q+gaFUeAAAECBAgQIECAAIF+FhBg9XPv9+m1TzfddLXdBmeaaaaiBXolwNp2223T6aefXrR1FLfxxhunX/7yl8XXqUACBAgQIECAAAECBAj0o4AAqx97vc+v+Sc/+Un6zGc+U7xCrzwVVJUA68Ybb0yrrLJK8eNCgQQIECBAgAABAgQIEOhHAQFWP/Z6n1/za6+9Vok1j2655Za00korVb63qhJgBXTsRnn++edX3twFECBAgAABAgQIECBAoNcEBFi91qOuZ1iByy67LK299tqVUOqVxcX33nvvyqwvFbsRjho1yq6ElfgXokgCBAgQIECAAAECBPpJQIDVT73d59c622yzpb/97W/Fr301eTf913/FP9Fqt5dffjlNO+20lbmIWHT+pptuqky9CiVAgAABAgQIECBAgEA/CAiw+qGXXWNNYK211kpXXHFFpTS22WabNG7cuErVPGWxb775ZqXqf/XVVysVuFUKV7EECBAgQIAAAQIECBBoUkCA1SSct1VPoGpPAoXwJZdcktZdd93qYf+74q222qqSAdw000yTXn/99cq6K5wAAQIECBAgQIAAAQK9JiDA6rUedT2DCsw555zpscceq5zOb3/727TiiitWru6Bgs8444wUT5FVre21117piCOOqFrZ6iVAgAABAgQIECBAgEDPCgiwerZrXdjkAttvv3065ZRTKodS9YXcf/WrX6UNN9ywcu4HHHBAOuywwypXt4IJECBAgAABAgQIECDQqwICrF7tWdf1FoEddtghnXzyyZVUqfJC7lVb/2pggEyYMCEts8wylRwviiZAgAABAgQIECBAgEAvCgiwerFXXdNUAvFEzSGHHFJJmTXXXDNdffXVlay9qgFWYFc5OKzkYFE0AQIECBAgQIAAAQIEhhEQYBkefSEQT9QstdRSlbzW++67L40ePbpytb/97W+v9ELoAqzKDTkFEyBAgAABAgQIECDQwwICrB7uXJf2/wJVfhIodk+cfvrpK9eds8wyS3r22WcrV/dAwQKsynadwgkQIECAAAECBAgQ6EEBAVYPdqpLmlqgygFWVRdyX2ONNdJVV11V2eEowKps1ymcAAECBAgQIECAAIEeFBBg9WCnuiQBVgljQIBVQi+ogQABAgQIECBAgAABAr0hIMDqjX50FSMIPPLII2meeeappNMLL7yQZppppsrVPu2006aY/ljV5gmsqvacugkQIECAAAECBAgQ6EUBAVYv9qprmkrg2GOPTbvttlslZW6//fa03HLLVa72CIDeeOONytU9ULAAq7Jdp3ACBAgQIECAAAECBHpQQIDVg53qkqYW2HHHHdNJJ51USZrYza+qQVBV1x6bNGlSmnHGGSs5XhRNgAABAgQIECBAgACBXhQQYPVir7qmqQS23377dMopp1RSpspPAj3++ONpjjnmqJz7YYcdlg444IDK1a1gAgQIECBAgAABAgQI9KqAAKtXe9Z1vUVgiSWWSHfeeWflVJ5++uk0++yzV67ugYLHjRuXttpqq8rVv99++6XDDz+8cnUrmAABAgQIECBAgAABAr0qIMDq1Z51XVMJVHE626WXXprWWWedyvbm0Ucfnb761a9Wrv4FFlggPfDAA5WrW8EECBAgQIAAAQIECBDoVQEBVq/2rOuaSmDs2LHpvPPOq5TMoYcemg488MBK1Tx5se94xzvSa6+9Vrn6qzxts3LYCiZAgAABAgQIECBAgEAdAgKsOpC8pDcE5p133nTfffelCFWq0P71r39VptbhPE8++eS0ww47VIG8VuP666+fLr744srUq1ACBAgQIECAAAECBAj0g4AAqx962TXWBOKpmrvuuistvPDClRDZf//90ze/+c1K1DpckWPGjEmXXHJJJa7j1VdfTQsttFB66KGHKlGvIgkQIECAAAECBAgQINAvAgKsfulp11kTmH766dOkSZNqYVbpbc4550xPPPFE6WXWVV9cx6hRo+p6bTdfdM0116Q11lijmyU4NwECBAgQIECAAAECBAgMIiDAMiz6TuBnP/tZ2nLLLYu+7k022SSde+65RdfYSHGLLLJI7em3ktuTTz6Z5phjjpJLVBsBAgQIECBAgAABAgT6VkCA1bdd378XPnr06HTvvfcWCxBPiM0///zpmWeeKbbGZgq7/vrr0yqrrNLMWzvynk984hPpwgsv7Mi5nIQAAQIECBAgQIAAAQIEGhMQYDXm5dU9IhALdZcYVsSOfRGwPfzwwz0i/dbLuPvuu4tcg+yKK65Ia6+9dk+auygCBAgQIECAAAECBAj0goAAqxd60TU0JTBx4sS0+OKLN/Xedr3ppJNOSl/4whfadfiuH3f55ZdPN998c3r729/e9VoGCogn3Wafffb05ptvFlOTQggQIECAAAECBAgQIEDgrQICLCOibwUiRIkQa7HFFivC4LDDDksHHHBAEbW0s4jPf/7z6cQTT2znKeo+9vPPP1/bdTDWv9IIECBAgAABAgQIECBAoFwBAVa5faOyDgjEboQxfWzNNdfswNmGPsURRxyR9tlnn/TGG290tY5OnXzPPfdM3/72t9Pb3va2Tp1yqvPEzogbbbRRuvHGG7tWgxMTIECAAAECBAgQIECAQH0CAqz6nLyqxwVuuummtNJKK3XlKn/84x+n7bbbrivn7uZJ42mzr3/962nGGWfseBl33nln2nzzzdNf/vKXjp/bCQkQIECAAAECBAgQIECgcQEBVuNm3tGjAuPGjUtbbLFFx54Kev3119PBBx+cYupgv7ZZZ501Pfroo2naaaftGMHLL7+cpp9++o6dz4kIECBAgAABAgQIECBAoHUBAVbrho7QQwJLLrlkuvLKK2uLerezPffcc2nZZZdN999/fztPU4ljzzzzzOlb3/pW+uIXv9j2emOq6A033JBit0eNAAECBAgQIECAAAECBKojIMCqTl+ptEMCsbj7QQcdlPbee+/0jne8I+tZ77333nTMMcek448/vm/Wu6oXcMMNN6yFWOuuu269b6n7daeccko66qijTBmsW8wLCRAgQIAAAQIECBAgUJaAAKus/lBNYQJHHnlkWm+99dLiiy/edGX/+te/aguFn3766em0005r+jj98sbRo0enU089Na2wwgrpne98Z9OX/eCDD6YJEyakzTbbLL3yyitNH8cbCRAgQIAAAQIECBAgQKD7AgKs7veBCgoXiJ3y4qmsCLO+9KUv1f7f9bQ333wzbbvttmn8+PGmrNUDNsVr4um3pZZaKv3mN79Jo0aNqvsIt99+e21XyUmTJqUIDzUCBAgQIECAAAECBAgQqL6AAKv6fegKOiwQC4DHE1mzzTZb+q//in9C/98iMHniiSdqT/5oeQUWXHDBNN9886XppptuqgM///zztemBzzzzTN6TOhoBAgQIECBAgAABAgQIFCEgwCqiGxRBgAABAgQIECBAgAABAgQIECAwlIAAy9ggQIAAAQIECBAgQIAAAQIECBAoWkCAVXT3KI4AAQIECBAgQIAAAQIECBAgQECAZQwQIECAAAECBAgQIECAAAECBAgULSDAKrp7FEeAAAECBAgQIECAAAECBAgQICDAMgYIECBAgAABAgQIECBAgAABAgSKFhBgFd09iiNAgAABAgQIECBAgAABAgQIEBBgGQMECBAgQIAAAQIECBAgQIAAAQJFCwiwiu4exREgQIAAAQIECBAgQIAAAQIECAiwjAECBAgQIECAAAECBAgQIECAAIGiBQRYRXeP4ggQIECAAAECBAgQIECAAAECBARYxgABAgQIECBAgAABAgQIECBAgEDRAgKsortHcQQIECBAgAABAgQIECBAgAABAgIsY4AAAQIECBAgQIAAAQIECBAgQKBoAQFW0d2jOAIECBAgQIAAAQIECBAgQIAAAQGWMUCAAAECBAgQIECAAAECBAgQIFC0gACr6O5RHAECBAgQIECAAAECBAgQIECAgADLGCBAgAABAgQIECBAgAABAgQIEChaQIBVdPcojgABAgQIECBAgAABAgQIECBAQIBlDBAgQIAAAQIECBAgQIAAAQIECBQtIMAqunsUR4AAAQIECBAgQIAAAQIECBAgIMAyBggQIECAAAECBAgQIECAAAECBIoWEGAV3T2KI0CAAAECBAgQIECAAAECBAgQEGAZAwQIECBAgAABAgQIECBAgAABAkULCLCK7h7FESBAgAABAgQIECBAgAABAgQICLCMAQIECBAgQIAAAQIECBAgQIAAgaIFBFhFd4/iCBAgQIAAAQIECBAgQIAAAQIEBFjGAAECBAgQIECAAAECBAgQIECAQNECAqyiu0dxBAgQIECAAAECBAgQIECAAAECAixjgAABAgQIECBAgAABAgQIECBAoGgBAVbR3aM4AgQIECBAgAABAgQIECBAgAABAZYxQIAAAQIECBAgQIAAAQIECBAgULSAAKvo7lEcAQIECBAgQIAAAQIECBAgQICAAMsYIECAAAECBAgQIECAAAECBAgQKFpAgFV09yiOAAECBAgQIECAAAECBAgQIEBAgGUMECBAgAABAgQIECBAgAABAgQIFC0gwCq6exRHgAABAgQIECBAgAABAgQIECAgwDIGCBAgQIAAAQIECBAgQIAAAQIEihYQYBXdPYojQIAAAQIECBAgQIAAAQIECBAQYBkDBAgQIECAAAECBAgQIECAAAECRQsIsIruHsURIECAAAECBAgQIECAAAECBAgIsIwBAgQIECBAgAABAgQIECBAgACBogUEWEV3j+IIECBAgAABAgQIECBAgAABAgQEWMYAAQIECBAgQIAAAQIECBAgQIBA0QICrKK7R3EECBAgQIAAAQIECBAgQIAAAQICLGOAAAECBAgQIECAAAECBAgQIECgaAEBVtHdozgCBAgQIECAAAECBAgQIECAAAEBljFAgAABAgQIECBAgAABAgQIECBQtIAAq+juURwBAgQIECBAgAABAgQIECBAgIAAyxggQIAAAQIECBAgQIAAAQIECBAoWkCAVXT3KI4AAQIECBAgQIAAAQIECBAgQECAZQwQIECAAAECBAgQIECAAAECBAgULSDAKrp7FEeAAAECBAgQIECAAAECBAgQICDAMgYIECBAgAABAgQIECBAgIxTj5oAACAASURBVAABAgSKFhBgFd09iiNAgAABAgQIECBAgAABAgQIEBBgGQMECBAgQIAAAQIECBAgQIAAAQJFCwiwiu4exREgQIAAAQIECBAgQIAAAQIECAiwjAECBAgQIECAAAECBAgQIECAAIGiBQRYRXeP4ggQIECAAAECBAgQIECAAAECBARYxgABAgQIECBAgAABAgQIECBAgEDRAgKsortHcQQIECBAgAABAgQIECBAgAABAgIsY4AAAQIECBAgQIAAAQIECBAgQKBoAQFW0d2jOAIECBAgQIAAAQIECBAgQIAAAQGWMUCAAAECBAgQIECAAAECBAgQIFC0gACr6O5RHAECBAgQIECAAAECBAgQIECAgADLGCBAgAABAgQIECBAgAABAgQIEChaQIBVdPcojgABAgQIECBAgAABAgQIECBAQIBlDBAgQIAAAQIECBAgQIAAAQIECBQtIMAqunsUR4AAAQIECBAgQIAAAQIECBAgIMAyBggQIECAAAECBAgQIECAAAECBIoWEGAV3T2KI0CAAAECBAgQIECAAAECBAgQEGAZAwQIECBAgAABAgQIECBAgAABAkULCLCK7h7FESBAgAABAgQIECBAgAABAgQICLCMAQIECBAgQIAAAQIECBAgQIAAgaIFBFhFd4/iCBAgQIAAAQIECBAgQIAAAQIEBFjGAAECBAgQIECAAAECBAgQIECAQNECAqyiu0dxBAgQIECAAAECBAgQIECAAAECAixjgAABAgQIECBAgAABAgQIECBAoGgBAVbR3aM4AgQIECBAgAABAgQIECBAgAABAZYxQIAAAQIECBAgQIAAAQIECBAgULSAAKvo7lEcAQIECBAgQIAAAQIECBAgQICAAMsYIECAAAECBAgQIECAAAECBAgQKFpAgFV09yiOAAECBAgQIECAAAECBAgQIEBAgGUMECBAgAABAgQIECBAgAABAgQIFC0gwCq6exRHgAABAgQIECBAgAABAgQIECAgwDIGCBAgQIAAAQIECBAgQIAAAQIEihYQYBXdPYojQIAAAQIECBAgQIAAAQIECBAQYBkDBAgQIECAAAECBAgQIECAAAECRQsIsIruHsURIECAAAECBAgQIECAAAECBAgIsIwBAgQIECBAgAABAgQIECBAgACBogUEWEV3j+IIECBAgAABAgQIECBAgAABAgQEWMYAAQIECBAgQIAAAQIECBAgQIBA0QICrKK7R3EECBAgQIAAAQIECBAgQIAAAQICLGOAAAECBAgQIECAAAECBAgQIECgaAEBVtHdozgCBAgQIECAAAECBAgQIECAAAEBljFAgAABAgQIECBAgAABAgQIECBQtIAAq+juURwBAgQIECBAgAABAgQIECBAgIAAyxggQIAAAQIECBAgQIAAAQIECBAoWkCAVXT3KI4AAQIECBAgQIAAAQIECBAgQECAZQwQIECAAAECBAgQIECAAAECBAgULSDAKrp7FEeAAAECBAgQIECAAAECBAgQICDAMgYIECBAgAABAgQIECBAgAABAgSKFhBgFd09iiNAgAABAgQIECBAgAABAgQIEBBgGQMECBAgQIAAAQIECBAgQIAAAQJFCwiwiu4exREgQIAAAQIECBAgQIAAAQIECAiwjAECBAgQIECAAAECBAgQIECAAIGiBQRYRXeP4ggQIECAAAECBAgQIECAAAECBARYxgABAgQIECBAgAABAgQIECBAgEDRAgKsortHcQQIECBAgAABAgQIECBAgAABAgIsY4AAAQIECBAgQIAAAQIECBAgQKBoAQFW0d2jOAIECBAgQIAAAQIECBAgQIAAAQGWMUCAAAECBAgQIECAAAECBAgQIFC0gACr6O5RHAECBAgQIECAAAECBAgQIECAgADLGCBAgAABAgQIECBAgAABAgQIEChaQIBVdPcojgABAgQIECBAgAABAgQIECBAQIBlDBAgQIAAAQIECBAgQIAAAQIECBQtIMAqunsUR4AAAQIECBAgQIAAAQIECBAgIMAyBggQIECAAAECBAgQIECAAAECBIoWEGAV3T2KI0CAAAECBAgQIECAAAECBAgQEGAZAwQIECBAgAABAgQIECBAgAABAkULCLCK7h7FESBAgAABAgQIECBAgAABAgQICLCMAQIECBAgQIAAAQIECBAgQIAAgaIFBFhFd4/iCBAgQIAAAQIECBAgQIAAAQIEBFjGAAECBAgQIECAAAECBAgQIECAQNECAqyiu0dxBAgQIECAAAECBAgQIECAAAECAixjgAABAgQIECBAgAABAgQIECBAoGgBAVbR3aM4AgQIECBAgAABAgQIECBAgAABAZYxQIAAAQIECBAgQIAAAQIECBAgULSAAKvo7lEcAQIECBAgQIAAAQIECBAgQICAAMsYIECAAAECBAgQIECAAAECBAgQKFpAgFV09yiOAAECBAgQIECAAAECBAgQIEBAgGUMECBAgAABAgQIECBAgAABAgQIFC0gwCq6exRHgAABAgQIECBAgAABAgQIECAgwDIGCBAgQIAAAQIECBAgQIAAAQIEihYQYBXdPYojQIAAAQIECBAgQIAAAQIECBAQYBkDBAgQIECAAAECBAgQIECAAAECRQsIsIruHsURIECAAAECBAgQIECAAAECBAgIsIwBAgQIECBAgAABAgQIECBAgACBogUEWEV3j+IIECBAgAABAgQIECBAgAABAgQEWMYAAQIECBAgQIAAAQIECBAgQIBA0QICrKK7R3EECBAgQIAAAQIECBAgQIAAAQICLGOAAAECBAgQIECAAAECBAgQIECgaAEBVtHdozgCBAgQIECAAAECBAgQIECAAAEBljFAgAABAgQIECBAgAABAgQIECBQtIAAq+juURwBAgQIECBAgAABAgQIECBAgIAAyxggQIAAAQIECBAgQIAAAQIECBAoWkCAVXT3KI4AAQIECBAgQIAAAQIECBAgQECAZQwQIECAAAECBAgQIECAAAECBAgULSDAKrp7FEeAAAECBAgQIECAAAECBAgQICDAMgYIECBAgAABAgQIECBAgAABAgSKFhBgFd09iiNAgAABAgQIECBAgAABAgQIEBBgGQMECBAgQIAAAQIECBAgQIAAAQJFCwiwiu4exREgQIAAAQIECBAgQIAAAQIECAiwjAECBAgQIECAAAECBAgQIECAAIGiBQRYRXeP4ggQIECAAAECBAgQIECAAAECBARYxgABAgQIECBAgAABAgQIECBAgEDRAgKsortHcQQIECBAgAABAgQIECBAgAABAgIsY4AAAQIECBAgQIAAAQIECBAgQKBoAQFW0d2jOAIECBAgQIAAAQIECBAgQIAAAQGWMUCAAAECBAgQIECAAAECBAgQIFC0gACr6O5RHAECBAgQIECAAAECBAgQIECAgADLGCBAgAABAgQIECBAgAABAgQIEChaQIBVdPcojgABAgQIECBAgAABAgQIECBAQIBlDBAgQIAAAQIECBAgQIAAAQIECBQtIMAqunsUR4AAAQIECBAgQIAAAQIECBAgIMAyBggQIECAAAECBAgQIECAAAECBIoWEGAV3T2KI0CAAAECBAgQIECAAAECBAgQEGAZAwQIECBAgAABAgQIECBAgAABAkULCLCK7h7FESBAgAABAgQIECBAgAABAgQICLCMAQIECBAgQIAAAQIECBAgQIAAgaIFBFhFd4/iCBAgQIAAAQIECBAgQIAAAQIEBFjGAAECBAgQIECAAAECBAgQIECAQNECAqyiu0dxBAgQIECAAAECBAgQIECAAAECAixjgAABAgQIECBAgAABAgQIECBAoGgBAVbR3aM4AgQIECBAgAABAgQIECBAgAABAZYxQIAAAQIECBAgQIAAAQIECBAgULSAAKvo7lEcAQIECBAgQIAAAQIECBAgQICAAMsYIECAAAECBAgQIECAAAECBAgQKFpAgFV09yiOAAECBAgQIECAAAECBAgQIEBAgGUMECBAgAABAgQIECBAgAABAgQIFC0gwCq6exRHgAABAgQIECBAgAABAgQIECAgwDIGCBAgQIAAAQIECBAgQIAAAQIEihYQYBXdPYojQIAAAQIECBAgQIAAAQIECBAQYBkDBAgQIECAAAECBAgQIECAAAECRQsIsIruHsURIECAAAECBAgQIECAAAECBAgIsIwBAgQIECBAgAABAgQIECBAgACBogUEWEV3j+IIECBAgAABAgQIECBAgAABAgQEWMYAAQIECBAgQIAAAQIECBAgQIBA0QICrKK7R3EECBAgQIAAAQIECBAgQIAAAQICLGOAAAECBAgQIECAAAECBAgQIECgaAEBVtHdozgCBAgQIECAAAECBAgQIECAAAEBljFAgAABAgQIECBAgAABAgQIECBQtIAAq+juURwBAgQIECBAgAABAgQIECBAgIAAyxggQIAAAQIECBAgQIAAAQIECBAoWkCAVXT3KI4AAQIECBAgQIAAAQIECBAgQECAZQwQIECAAAECBAgQIECAAAECBAgULSDAKrp7FEeAAAECBAgQIECAAAECBAgQICDAMgYIECBAgAABAgQIECBAgAABAgSKFhBgFd09iiNAgAABAgQIECBAgAABAgQIEBBgGQMECBAgQIAAAQIECBAgQIAAAQJFCwiwiu4exREgQIAAAQIECBAgQIAAAQIECAiwjAECBAgQIECAAAECBAgQIECAAIGiBQRYRXeP4ggQIECAAAECBAgQIECAAAECBARYxgABAgQIECBAgAABAgQIECBAgEDRAgKsortHcQQIECBAgAABAgQIECBAgAABAgIsY4AAAQIECBAgQIAAAQIECBAgQKBoAQFW0d2jOAIECBAgQIAAAQIECBAgQIAAAQGWMUCAAAECBAgQIECAAAECBAgQIFC0gACr6O5RHAECBAgQIECAAAECBAgQIECAgADLGCBAgAABAgQIECBAgAABAgQIEChaQIBVdPcojgABAgQIECBAgAABAgQIECBAQIBlDBAgQIAAAQIECBAgQIAAAQIECBQtIMAqunsUR4AAAQIECBAgQIAAAQIECBAgIMAyBggQIECAAAECBAgQIECAAAECBIoWEGAV3T2KI0CAAAECBAgQIECAAAECBAgQEGAZAwQIECBAgAABAgQIECBAgAABAkULCLCK7h7FESBAgAABAgQIECBAgAABAgQICLCMAQIECBAgQIAAAQIECBAgQIAAgaIFBFhFd4/iCBAgQIAAAQIECBAgQIAAAQIEBFjGAAECBAgQIECAAAECBAgQIECAQNECAqyiu0dxBAgQIECAAAECBAgQIECAAAECAixjgAABAgQIECBAgAABAgQIECBAoGgBAVbR3aM4AgQIECBAgAABAgQIECBAgAABAZYxQIAAAQIECBAgQIAAAQIECBAgULSAAKvo7lEcAQIECBAgQIAAAQIECBAgQICAAMsYIECAAAECBAgQIECAAAECBAgQKFpAgFV09yiOAAECBAgQIECAAAECBAgQIEBAgGUMECBAgAABAgQIECBAgAABAgQIFC0gwCq6exRHgAABAgQIECBAgAABAgQIECAgwDIGCBAgQIAAAQIECBAgQIAAAQIEihYQYBXdPYojQIAAAQIECBAgQIAAAQIECBAQYBkDBAgQIECAAAECBAgQIECAAAECRQsIsIruHsURIECAAAECBAgQIECAAAECBAgIsIwBAgQIECBAgAABAgQIECBAgACBogUEWEV3j+IIECBAgAABAgQIECBAgAABAgQEWMYAAQIECBAgQIAAAQIECBAgQIBA0QICrKK7R3EECBAgQIAAAQIECBAgQIAAAQICLGOAAAECBAgQIECAAAECBAgQIECgaAEBVtHdozgCBAgQIECAAAECBAgQIECAAAEBljFAgAABAgQIECBAgAABAgQIECBQtIAAq+juURwBAgQIECBAgAABAgQIECBAgIAAyxggQIAAAQIECBAgQIAAAQIECBAoWkCAVXT3KI4AAQIECBAgQIAAAQIECBAgQECAZQwQIECAAAECBAgQIECAAAECBAgULSDAKrp7FEeAAAECBAgQIECAAAECBAgQICDAMgYIECBAgAABAgQIECBAgAABAgSKFhBgFd09iiNAgAABAgQIECBAgAABAgQIEBBgGQMECBAgQIAAAQIECBAgQIAAAQJFCwiwiu4exREgQIAAAQIECBAgQIAAAQIECAiwjAECBAgQIECAAAECBAgQIECAAIGiBQRYRXeP4ggQIECAAAECBAgQIECAAAECBARYxgABAgQIECBAgAABAgQIECBAgEDRAgKsortHcQQIECBAgAABAgQIECBAgAABAgIsY4AAAQIECBAgQIAAAQIECBAgQKBoAQFW0d2jOAIECBAgQIAAAQIECBAgQIAAAQGWMUCAAAECBAgQIECAAAECBAgQIFC0gACr6O5RHAECBAgQIECAAAECBAgQIECAgADLGCBAgAABAgQIECBAgAABAgQIEChaQIBVdPcojgABAgQIECBAgAABAgQIECBAQIBlDBAgQIAAAQIECBAgQIAAAQIECBQtIMAqunsUR4AAAQIECBAgQIAAAQIECBAgIMAyBggQIECAAAECBAgQIECAAAECBIoWEGAV3T2KI0CAAAECBAgQIECAAAECBAgQEGAZAwQIECBAgAABAgQIECBAgAABAkULCLCK7h7FESBAgAABAgQIECBAgAABAgQICLCMAQIECBAgQIAAAQIECBAgQIAAgaIFBFhFd4/iCBAgQIAAAQIECBAgQIAAAQIEBFjGAAECBAgQIECAAAECBAgQIECAQNECAqyiu0dxBAgQIECAAAECBAgQIECAAAECAixjgAABAgQIECBAgAABAgQIECBAoGgBAVbR3aM4AgQIECBAgAABAgQIECBAgAABAZYxQIAAAQIECBAgQIAAAQIECBAgULSAAKvo7lEcAQIECBAgQIAAAQIECBAgQICAAMsYIECAAAECBAgQIECAAAECBAgQKFpAgFV09yiOAAECBAgQIECAAAECBAgQIEBAgGUMECBAgAABAgQIECBAgAABAgQIFC0gwCq6exRHgAABAgQIECBAgAABAgQIECAgwDIGCBAgQIAAAQIECBAgQIAAAQIEihYQYBXdPYojQIAAAQIECBAgQIAAAQIECBAQYBkDBAgQIECAAAECBAgQIECAAAECRQsIsIruHsURIECAAAECBAgQIECAAAECBAgIsIwBAgQIECBAgAABAgQIECBAgACBogUEWEV3j+IIECBAgAABAgQIECBAgAABAgQEWMYAAQIECBAgQIAAAQIECBAgQIBA0QICrKK7R3EECBAgQIAAAQIECBAgQIAAAQICLGOAAAECBAgQIECAAAECBAgQIECgaAEBVtHdozgCBAgQIECAAAECBAgQIECAAAEBljFAgAABAgQIECBAgAABAgQIECBQtIAAq+juURwBAgQIECBAgAABAgQIECBAgIAAyxggQIAAAQIECBAgQIAAAQIECBAoWkCAVXT3KI4AAQIECBAgQIAAAQIECBAgQECAZQwQIECAAAECBAgQIECAAAECBAgULSDAKrp7FEeAAAECBAgQIECAAAECBAgQICDAMgYIECBAgAABAgQIECBAgAABAgSKFhBgFd09iiNAgAABAgQIECBAgAABAgQIEBBgGQMECBAgQIAAAQIECBAgQIAAAQJFCwiwiu4exREgQIAAAQIECBAgQIAAAQIECAiwjAECBAgQIECAAAECBAgQIECAAIGiBQRYRXeP4ggQIECAAAECBAgQIECAAAECBARYxgABAgQIECBAgAABAgQIECBAgEDRAgKsortHcQQIECBAgAABAgQIECBAgAABAgIsY4AAAQIECBAgQIAAAQIECBAgQKBoAQFW0d2jOAIECBAgQIAAAQIECBAgQIAAAQGWMUCAAAECBAgQIECAAAECBAgQIFC0gACr6O5RHAECBAgQIECAAAECBAgQIECAgADLGCBAgAABAgQIECBAgAABAgQIEChaQIBVdPcojgABAgQIECBAgAABAgQIECBAQIBlDBAgQIAAAQIECBAgQIAAAQIECBQtIMAqunsUR4AAAQIECBAgQIAAAQIECBAgIMAyBggQIECAAAECBAgQIECAAAECBIoWEGAV3T2KI0CAAAECBAgQIECAAAECBAgQEGAZAwQIECBAgAABAgQIECBAgAABAkULCLCK7h7FESBAgAABAgQIECBAgAABAgQICLCMAQIECBAgQIAAAQIECBAgQIAAgaIFBFhFd4/iCBAgQIAAAQIECBAgQIAAAQIEBFjGAAECBAgQIECAAAECBAgQIECAQNECAqyiu0dxBAgQIECAAAECBAgQIECAAAECAixjgAABAgQIECBAgAABAgQIECBAoGgBAVbR3aM4AgQIECBAgAABAgQIECBAgAABAZYxQIAAAQIECBAgQIAAAQIECBAgULSAAKvo7lEcAQIECBAgQIAAAQIECBAgQICAAMsYIECAAAECBAgQIECAAAECBAgQKFpAgFV09yiOAAECBAgQIECAAAECBAgQIEBAgGUMECBAgAABAgQIECBAgAABAgQIFC0gwCq6exRHgAABAgQIECBAgAABAgQIECAgwDIGCBAgQIAAAQIECBAgQIAAAQIEihYQYBXdPYojQIAAAQIECBAgQIAAAQIECBAQYBkDBAgQIECAAAECBAgQIECAAAECRQsIsIruHsURIECAAAECBAgQIECAAAECBAgIsIwBAgQIECBAgAABAgQIECBAgACBogUEWEV3j+IIECBAgAABAgQIECBAgAABAgQEWMYAAQIECBAgQIAAAQIECBAgQIBA0QICrKK7R3EECBAgQIAAAQIECBAgQIAAAQICLGOAAAECBAgQIECAAAECBAgQIECgaAEBVtHdozgCBAgQIECAAAECBAgQIECAAAEBljFAgAABAgQIECBAgAABAgQIECBQtIAAq+juURwBAgQIECBAgAABAgQIECBAgIAAyxggQIAAAQIECBAgQIAAAQIECBAoWkCAVXT3KI4AAQIECBAgQIAAAQIECBAgQECAZQwQIECAAAECBAgQIECAAAECBAgULSDAKrp7FEeAAAECBAgQIECAAAECBAgQICDAMgYIECBAgAABAgQIECBAgAABAgSKFhBgFd09iiNAgAABAgQIECBAgAABAgQIEBBgGQMECBAgQIAAAQIECBAgQIAAAQJFCwiwiu4exREgQIAAAQIECBAgQIAAAQIECAiwjAECBAgQIECAAAECBAgQIECAAIGiBQRYRXeP4ggQIECAAAECBAgQIECAAAECBARYxgABAgQIECBAgAABAgQIECBAgEDRAgKsortHcQQIECBAgAABAgQIECBAgAABAgIsY4AAAQIECBAgQIAAAQIECBAgQKBoAQFW0d2jOAIECBAgQIAAAQIECBAgQIAAAQGWMUCAAAECBAgQIECAAAECBAgQIFC0gACr6O5RHAECBAgQIECAAAECBAgQIECAgADLGCBAgAABAgQIECBAgAABAgQIEChaQIBVdPcojgABAgQIECBAgAABAgQIECBAQIBlDBAgQIAAAQIECBAgQIAAAQIECBQtIMAqunsUR4AAAQIECBAgQIAAAQIECBAgIMAyBggQIECAAAECBAgQIECAAAECBIoWEGAV3T2KI0CAAAECBAgQIECAAAECBAgQEGAZAwQIECBAgAABAgQIECBAgAABAkULCLCK7h7FESBAgAABAgQIECBAgAABAgQICLCMAQIECBAgQIAAAQIECBAgQIAAgaIFBFhFd4/iCBAgQIAAAQIECBAgQIAAAQIEBFjGAAECBAgQIECAAAECBAgQIECAQNECAqyiu0dxBAgQIECAAAECBAgQIECAAAECAixjgAABAgQIECBAgAABAgQIECBAoGgBAVbR3aM4AgQIECBAgAABAgQIECBAgAABAZYxQIAAAQIECBAgQIAAAQIECBAgULSAAKvo7lEcAQIECBAgQIAAAQIECBAgQICAAMsYIECAAAECBAgQIECAAAECBAgQKFpAgFV09yiOAAECBAgQIECAAAECBAgQIEBAgGUMECBAgAABAgQIECBAgAABAgQIFC0gwCq6exRHgAABAgQIECBAgAABAgQIECAgwDIGCBAgQIAAAQIECBAgQIAAAQIEihYQYBXdPYojQIAAAQIECBAgQIAAAQIECBAQYBkDBAgQIECAAAECBAgQIECAAAECRQsIsIruHsURIECAAAECBAgQIECAAAECBAgIsIwBAgQIECBAgAABAgQIECBAgACBogUEWEV3j+IIECBAgAABAgQIECBAgAABAgQEWMYAAQIECBAgQIAAAQIECBAgQIBA0QICrKK7R3EECBAgQIAAAQIECBAgQIAAAQICLGOAAAECBAgQIECAAAECBAgQIECgaAEBVtHdozgCBAgQIECAAAECBAgQIECAAAEBljFAgAABAgQIECBAgAABAgQIECBQtIAAq+juURwBAgQIECBAgAABAgQIECBAgIAAyxggQIAAAQIECBAgQIAAAQIECBAoWkCAVXT3KI4AAQIECBAgQIAAAQIECBAgQECAZQwQIECAAAECBAgQIECAAAECBAgULSDAKrp7FEeAAAECBAgQIECAAAECBAgQICDAMgYIECBAgAABAgQIECBAgAABAgSKFhBgFd09iiNAgAABAgQIECBAgAABAgQIEBBgGQMECBAgQIAAAQIECBAgQIAAAQJFCwiwiu4exREgQIAAAQIECBAgQIAAAQIECAiwjAECBAgQIECAAAECBAgQIECAAIGiBQRYRXeP4ggQIECAAAECBAgQIECAAAECBARYxgABAgQIECBAgAABAgQIECBAgEDRzeVtCgAACQ5JREFUAgKsortHcQQIECBAgAABAgQIECBAgAABAgIsY4AAAQIECBAgQIAAAQIECBAgQKBoAQFW0d2jOAIECBAgQIAAAQIECBAgQIAAAQGWMUCAAAECBAgQIECAAAECBAgQIFC0gACr6O5RHAECBAgQIECAAAECBAgQIECAgADLGCBAgAABAgQIECBAgAABAgQIEChaQIBVdPcojgABAgQIECBAgAABAgQIECBAQIBlDBAgQIAAAQIECBAgQIAAAQIECBQtIMAqunsUR4AAAQIECBAgQIAAAQIECBAgIMAyBggQIECAAAECBAgQIECAAAECBIoWEGAV3T2KI0CAAAECBAgQIECAAAECBAgQEGAZAwQIECBAgAABAgQIECBAgAABAkULCLCK7h7FESBAgAABAgQIECBAgAABAgQICLCMAQIECBAgQIAAAQIECBAgQIAAgaIFBFhFd4/iCBAgQIAAAQIECBAgQIAAAQIEBFjGAAECBAgQIECAAAECBAgQIECAQNECAqyiu0dxBAgQIECAAAECBAgQIECAAAECAixjgAABAgQIECBAgAABAgQIECBAoGgBAVbR3aM4AgQIECBAgAABAgQIECBAgAABAZYxQIAAAQIECBAgQIAAAQIECBAgULSAAKvo7lEcgf9tx46JAABgIIT5d40NhjjopT9BgAABAgQIECBAgAABAgQIEBCwbIAAAQIECBAgQIAAAQIECBAgQGAtIGCt3+M4AgQIECBAgAABAgQIECBAgAABAcsGCBAgQIAAAQIECBAgQIAAAQIE1gIC1vo9jiNAgAABAgQIECBAgAABAgQIEBCwbIAAAQIECBAgQIAAAQIECBAgQGAtIGCt3+M4AgQIECBAgAABAgQIECBAgAABAcsGCBAgQIAAAQIECBAgQIAAAQIE1gIC1vo9jiNAgAABAgQIECBAgAABAgQIEBCwbIAAAQIECBAgQIAAAQIECBAgQGAtIGCt3+M4AgQIECBAgAABAgQIECBAgAABAcsGCBAgQIAAAQIECBAgQIAAAQIE1gIC1vo9jiNAgAABAgQIECBAgAABAgQIEBCwbIAAAQIECBAgQIAAAQIECBAgQGAtIGCt3+M4AgQIECBAgAABAgQIECBAgAABAcsGCBAgQIAAAQIECBAgQIAAAQIE1gIC1vo9jiNAgAABAgQIECBAgAABAgQIEBCwbIAAAQIECBAgQIAAAQIECBAgQGAtIGCt3+M4AgQIECBAgAABAgQIECBAgAABAcsGCBAgQIAAAQIECBAgQIAAAQIE1gIC1vo9jiNAgAABAgQIECBAgAABAgQIEBCwbIAAAQIECBAgQIAAAQIECBAgQGAtIGCt3+M4AgQIECBAgAABAgQIECBAgAABAcsGCBAgQIAAAQIECBAgQIAAAQIE1gIC1vo9jiNAgAABAgQIECBAgAABAgQIEBCwbIAAAQIECBAgQIAAAQIECBAgQGAtIGCt3+M4AgQIECBAgAABAgQIECBAgAABAcsGCBAgQIAAAQIECBAgQIAAAQIE1gIC1vo9jiNAgAABAgQIECBAgAABAgQIEBCwbIAAAQIECBAgQIAAAQIECBAgQGAtIGCt3+M4AgQIECBAgAABAgQIECBAgAABAcsGCBAgQIAAAQIECBAgQIAAAQIE1gIC1vo9jiNAgAABAgQIECBAgAABAgQIEBCwbIAAAQIECBAgQIAAAQIECBAgQGAtIGCt3+M4AgQIECBAgAABAgQIECBAgAABAcsGCBAgQIAAAQIECBAgQIAAAQIE1gIC1vo9jiNAgAABAgQIECBAgAABAgQIEBCwbIAAAQIECBAgQIAAAQIECBAgQGAtIGCt3+M4AgQIECBAgAABAgQIECBAgAABAcsGCBAgQIAAAQIECBAgQIAAAQIE1gIC1vo9jiNAgAABAgQIECBAgAABAgQIEBCwbIAAAQIECBAgQIAAAQIECBAgQGAtIGCt3+M4AgQIECBAgAABAgQIECBAgAABAcsGCBAgQIAAAQIECBAgQIAAAQIE1gIC1vo9jiNAgAABAgQIECBAgAABAgQIEBCwbIAAAQIECBAgQIAAAQIECBAgQGAtIGCt3+M4AgQIECBAgAABAgQIECBAgAABAcsGCBAgQIAAAQIECBAgQIAAAQIE1gIC1vo9jiNAgAABAgQIECBAgAABAgQIEBCwbIAAAQIECBAgQIAAAQIECBAgQGAtIGCt3+M4AgQIECBAgAABAgQIECBAgAABAcsGCBAgQIAAAQIECBAgQIAAAQIE1gIC1vo9jiNAgAABAgQIECBAgAABAgQIEBCwbIAAAQIECBAgQIAAAQIECBAgQGAtIGCt3+M4AgQIECBAgAABAgQIECBAgAABAcsGCBAgQIAAAQIECBAgQIAAAQIE1gIC1vo9jiNAgAABAgQIECBAgAABAgQIEBCwbIAAAQIECBAgQIAAAQIECBAgQGAtIGCt3+M4AgQIECBAgAABAgQIECBAgAABAcsGCBAgQIAAAQIECBAgQIAAAQIE1gIC1vo9jiNAgAABAgQIECBAgAABAgQIEBCwbIAAAQIECBAgQIAAAQIECBAgQGAtIGCt3+M4AgQIECBAgAABAgQIECBAgAABAcsGCBAgQIAAAQIECBAgQIAAAQIE1gIC1vo9jiNAgAABAgQIECBAgAABAgQIEBCwbIAAAQIECBAgQIAAAQIECBAgQGAtIGCt3+M4AgQIECBAgAABAgQIECBAgAABAcsGCBAgQIAAAQIECBAgQIAAAQIE1gIC1vo9jiNAgAABAgQIECBAgAABAgQIEBCwbIAAAQIECBAgQIAAAQIECBAgQGAtIGCt3+M4AgQIECBAgAABAgQIECBAgAABAcsGCBAgQIAAAQIECBAgQIAAAQIE1gIC1vo9jiNAgAABAgQIECBAgAABAgQIEBCwbIAAAQIECBAgQIAAAQIECBAgQGAtIGCt3+M4AgQIECBAgAABAgQIECBAgAABAcsGCBAgQIAAAQIECBAgQIAAAQIE1gIC1vo9jiNAgAABAgQIECBAgAABAgQIEBCwbIAAAQIECBAgQIAAAQIECBAgQGAtEDcACuBhsOasAAAAAElFTkSuQmCC;" vertex="1" parent="1">
          <mxGeometry x="628" y="120" width="116" height="116" as="geometry" />
        </mxCell>
        <mxCell id="qcqZiNCh5-ERCb72kDhO-4" style="edgeStyle=orthogonalEdgeStyle;rounded=0;orthogonalLoop=1;jettySize=auto;html=1;entryX=0;entryY=0.454;entryDx=0;entryDy=0;entryPerimeter=0;endArrow=none;endFill=0;startArrow=classic;startFill=1;" edge="1" parent="1" source="qcqZiNCh5-ERCb72kDhO-1" target="WshjYJy2SDbHsKW-Wd6B-2">
          <mxGeometry relative="1" as="geometry" />
        </mxCell>
        <mxCell id="qcqZiNCh5-ERCb72kDhO-20" style="edgeStyle=orthogonalEdgeStyle;rounded=0;orthogonalLoop=1;jettySize=auto;html=1;" edge="1" parent="1" source="qcqZiNCh5-ERCb72kDhO-5" target="J-huqx3Fim4sQxfyZbjW-82">
          <mxGeometry relative="1" as="geometry">
            <Array as="points">
              <mxPoint x="546" y="300" />
            </Array>
          </mxGeometry>
        </mxCell>
        <mxCell id="qcqZiNCh5-ERCb72kDhO-31" style="edgeStyle=orthogonalEdgeStyle;rounded=0;orthogonalLoop=1;jettySize=auto;html=1;" edge="1" parent="1" source="qcqZiNCh5-ERCb72kDhO-5" target="qcqZiNCh5-ERCb72kDhO-22">
          <mxGeometry relative="1" as="geometry">
            <Array as="points">
              <mxPoint x="840" y="310" />
            </Array>
          </mxGeometry>
        </mxCell>
        <mxCell id="qcqZiNCh5-ERCb72kDhO-5" value="IMPACT&lt;br&gt;SCORING" style="rounded=1;whiteSpace=wrap;html=1;fillColor=#080808;fontColor=#FFFFFF;" vertex="1" parent="1">
          <mxGeometry x="628" y="270" width="120" height="60" as="geometry" />
        </mxCell>
        <mxCell id="qcqZiNCh5-ERCb72kDhO-10" value="" style="shape=image;html=1;verticalAlign=top;verticalLabelPosition=bottom;labelBackgroundColor=#ffffff;imageAspect=0;aspect=fixed;image=https://cdn1.iconfinder.com/data/icons/bootstrap-vol-3/16/filetype-xls-128.png" vertex="1" parent="1">
          <mxGeometry x="578" y="363.95" width="28" height="28" as="geometry" />
        </mxCell>
        <mxCell id="qcqZiNCh5-ERCb72kDhO-22" value="Actions" style="text;html=1;strokeColor=none;fillColor=none;align=center;verticalAlign=middle;whiteSpace=wrap;rounded=0;fontStyle=1;strokeWidth=3;fontSize=14;" vertex="1" parent="1">
          <mxGeometry x="744.25" y="330" width="191.5" height="50" as="geometry" />
        </mxCell>
        <mxCell id="qcqZiNCh5-ERCb72kDhO-29" value="" style="sketch=0;points=[[0,0,0],[0.25,0,0],[0.5,0,0],[0.75,0,0],[1,0,0],[0,1,0],[0.25,1,0],[0.5,1,0],[0.75,1,0],[1,1,0],[0,0.25,0],[0,0.5,0],[0,0.75,0],[1,0.25,0],[1,0.5,0],[1,0.75,0]];outlineConnect=0;fontColor=#232F3E;gradientColor=#F54749;gradientDirection=north;fillColor=#C7131F;strokeColor=#ffffff;dashed=0;verticalLabelPosition=bottom;verticalAlign=top;align=center;html=1;fontSize=12;fontStyle=0;aspect=fixed;shape=mxgraph.aws4.resourceIcon;resIcon=mxgraph.aws4.security_hub;container=0;" vertex="1" parent="1">
          <mxGeometry x="824.52" y="369.8128571428571" width="30.952380952380953" height="30.952380952380953" as="geometry" />
        </mxCell>
      </root>
    </mxGraphModel>
  </diagram>
</mxfile>
